<svg width="24" height="24" viewBox="0 0 24 24" fill="none" xmlns="http://www.w3.org/2000/svg">
<path d="M21.9329 13.8367C21.8306 12.2041 21.524 9.95918 21.2173 8.42857C21.0129 7.10204 19.7862 6.18367 18.4574 6.18367H5.57769C4.24883 6.18367 3.0222 7.20408 2.81776 8.42857C2.61332 9.95918 2.20444 12.102 2.10222 13.8367C2 15.4694 2 17.5102 2 19.0408C2 20.4694 3.12442 21.5918 4.55549 21.6939C6.70211 21.7959 9.66648 22 11.9153 22C14.1642 22 17.1285 21.7959 19.2751 21.6939C20.7062 21.5918 21.8306 20.4694 21.8306 19.0408C22.0351 17.5102 22.0351 15.3673 21.9329 13.8367ZM8.95094 12C8.43985 12 7.92875 11.4898 7.92875 10.9796C7.92875 10.4694 8.43985 9.95918 8.95094 9.95918C9.46204 9.95918 9.97314 10.4694 9.97314 10.9796C9.97314 11.4898 9.46204 12 8.95094 12ZM15.0841 12C14.573 12 14.0619 11.4898 14.0619 10.9796C14.0619 10.4694 14.573 9.95918 15.0841 9.95918C15.5952 9.95918 16.1063 10.4694 16.1063 10.9796C16.1063 11.4898 15.5952 12 15.0841 12Z" fill="#030D45"/>
<path d="M9.7687 4.85714C9.7687 4.14286 10.382 3.63265 10.9953 3.63265H13.0397C13.7553 3.63265 14.2664 4.2449 14.2664 4.85714V5.36735H15.7997V4.85714C15.7997 3.32653 14.573 2 12.9375 2H10.8931C9.46204 2 8.13319 3.32653 8.13319 4.85714V5.36735H9.66648V4.85714H9.7687Z" fill="#030D45"/>
</svg>
