<svg width="96" height="96" viewBox="0 0 96 96" fill="none" xmlns="http://www.w3.org/2000/svg">
<path d="M48 81.375C69.1721 81.375 86.3355 73.528 86.3355 63.8483V58.9907H9.66449V63.8483C9.66449 73.528 26.8279 81.375 48 81.375Z" fill="#93481C"/>
<path fill-rule="evenodd" clip-rule="evenodd" d="M7.66449 58.9907C7.66449 57.8862 8.55992 56.9907 9.66449 56.9907H86.3355C87.4401 56.9907 88.3355 57.8862 88.3355 58.9907V63.8483C88.3355 69.9486 83.0158 74.825 75.9389 78.0605C68.6856 81.3766 58.8058 83.375 48 83.375C37.1942 83.375 27.3144 81.3766 20.0611 78.0605C12.9843 74.825 7.66449 69.9486 7.66449 63.8483V58.9907ZM86.3355 63.8483C86.3355 73.528 69.1721 81.375 48 81.375C26.8279 81.375 9.66449 73.528 9.66449 63.8483V58.9907H86.3355V63.8483Z" fill="#663213"/>
<path fill-rule="evenodd" clip-rule="evenodd" d="M15.0429 71.8828C15.3493 71.4233 15.9702 71.2991 16.4297 71.6054C17.4761 72.3031 20.0827 73.92 22.1542 74.8353C22.6593 75.0585 22.8879 75.649 22.6647 76.1541C22.4415 76.6593 21.851 76.8879 21.3458 76.6647C19.1173 75.68 16.3988 73.9886 15.3203 73.2695C14.8608 72.9632 14.7366 72.3423 15.0429 71.8828Z" fill="#B66131"/>
<path d="M86.3355 59.6472C86.3355 69.3269 69.1721 77.1739 48 77.1739C26.8279 77.1739 9.66449 69.3269 9.66449 59.6472C9.66449 49.9674 26.8279 42.1205 48 42.1205C69.1721 42.1205 86.3355 49.9674 86.3355 59.6472Z" fill="#A75729"/>
<path fill-rule="evenodd" clip-rule="evenodd" d="M75.9389 73.8593C68.6856 77.1755 58.8058 79.1739 48 79.1739C37.1942 79.1739 27.3144 77.1755 20.0611 73.8593C12.9843 70.6239 7.66449 65.7474 7.66449 59.6472C7.66449 53.5469 12.9843 48.6705 20.0611 45.435C27.3144 42.1189 37.1942 40.1205 48 40.1205C58.8058 40.1205 68.6856 42.1189 75.9389 45.435C83.0158 48.6705 88.3355 53.5469 88.3355 59.6472C88.3355 65.7474 83.0158 70.6239 75.9389 73.8593ZM48 77.1739C69.1721 77.1739 86.3355 69.3269 86.3355 59.6472C86.3355 49.9674 69.1721 42.1205 48 42.1205C26.8279 42.1205 9.66449 49.9674 9.66449 59.6472C9.66449 69.3269 26.8279 77.1739 48 77.1739Z" fill="#663213"/>
<path d="M82.875 57.0508C82.875 64.8238 68.1843 71.125 50.0625 71.125C31.9407 71.125 17.25 64.8238 17.25 57.0508C17.25 49.2779 31.9407 42.9767 50.0625 42.9767C68.1843 42.9767 82.875 49.2779 82.875 57.0508Z" fill="#8E471F"/>
<path fill-rule="evenodd" clip-rule="evenodd" d="M14.1306 64.6638C14.5141 64.2663 15.1471 64.255 15.5446 64.6384C17.2673 66.3003 22.8714 70.1749 30.9176 71.6611C31.4606 71.7614 31.8196 72.283 31.7193 72.8261C31.619 73.3692 31.0974 73.7282 30.5543 73.6278C22.1109 72.0682 16.1531 68.0044 14.156 66.0778C13.7585 65.6943 13.7472 65.0613 14.1306 64.6638Z" fill="#E97D3F"/>
<path d="M21.6446 36.3008L52.2513 35.4915V54.9885H22.0125L21.6446 36.3008Z" fill="#FBA423"/>
<path fill-rule="evenodd" clip-rule="evenodd" d="M53.6467 34.0587C54.0333 34.4352 54.2513 34.9519 54.2513 35.4915V54.9885C54.2513 56.0931 53.3559 56.9885 52.2513 56.9885H22.0125C20.9232 56.9885 20.0343 56.1169 20.0129 55.0279L19.645 36.3401C19.6234 35.241 20.4928 34.3305 21.5917 34.3015L52.1985 33.4922C52.7379 33.4779 53.2602 33.6822 53.6467 34.0587ZM22.0125 54.9885L21.6446 36.3008L52.2513 35.4915V54.9885H22.0125Z" fill="#C88607"/>
<path d="M26.3125 41.058C26.3125 41.6448 25.6409 42.1205 24.8125 42.1205C23.9841 42.1205 23.3125 41.6448 23.3125 41.058C23.3125 40.4712 23.9841 39.9955 24.8125 39.9955C25.6409 39.9955 26.3125 40.4712 26.3125 41.058Z" fill="#C87903"/>
<path d="M36.948 40.4955C36.948 41.0823 36.2764 41.558 35.448 41.558C34.6195 41.558 33.948 41.0823 33.948 40.4955C33.948 39.9087 34.6195 39.433 35.448 39.433C36.2764 39.433 36.948 39.9087 36.948 40.4955Z" fill="#C87903"/>
<path d="M40.3855 50.933C40.3855 51.5198 39.7139 51.9955 38.8855 51.9955C38.057 51.9955 37.3855 51.5198 37.3855 50.933C37.3855 50.3462 38.057 49.8705 38.8855 49.8705C39.7139 49.8705 40.3855 50.3462 40.3855 50.933Z" fill="#C87903"/>
<path d="M31.8396 44.0784C31.8396 44.8811 30.921 45.5318 29.7878 45.5318C28.6546 45.5318 27.7359 44.8811 27.7359 44.0784C27.7359 43.2757 28.6546 42.625 29.7878 42.625C30.921 42.625 31.8396 43.2757 31.8396 44.0784Z" fill="#C87903"/>
<path d="M40.0271 45.7143C40.0271 46.517 39.1085 47.1677 37.9753 47.1677C36.8421 47.1677 35.9234 46.517 35.9234 45.7143C35.9234 44.9116 36.8421 44.2609 37.9753 44.2609C39.1085 44.2609 40.0271 44.9116 40.0271 45.7143Z" fill="#C87903"/>
<path d="M28.9162 48.9876C28.9162 49.7903 27.9976 50.441 26.8644 50.441C25.7312 50.441 24.8125 49.7903 24.8125 48.9876C24.8125 48.1849 25.7312 47.5342 26.8644 47.5342C27.9976 47.5342 28.9162 48.1849 28.9162 48.9876Z" fill="#C87903"/>
<path d="M33.3818 48.3001C33.3818 48.7231 32.8977 49.066 32.3005 49.066C31.7034 49.066 31.2193 48.7231 31.2193 48.3001C31.2193 47.8771 31.7034 47.5342 32.3005 47.5342C32.8977 47.5342 33.3818 47.8771 33.3818 48.3001Z" fill="#C87903"/>
<path d="M36.1105 52.4251C36.1105 52.8481 35.6264 53.191 35.0292 53.191C34.4321 53.191 33.948 52.8481 33.948 52.4251C33.948 52.0021 34.4321 51.6592 35.0292 51.6592C35.6264 51.6592 36.1105 52.0021 36.1105 52.4251Z" fill="#C87903"/>
<path d="M30.7359 51.9955C30.7359 52.4185 30.2518 52.7614 29.6546 52.7614C29.0575 52.7614 28.5734 52.4185 28.5734 51.9955C28.5734 51.5725 29.0575 51.2296 29.6546 51.2296C30.2518 51.2296 30.7359 51.5725 30.7359 51.9955Z" fill="#C87903"/>
<path d="M42.548 40.1989C42.548 40.6219 42.0639 40.9648 41.4667 40.9648C40.8696 40.9648 40.3855 40.6219 40.3855 40.1989C40.3855 39.7759 40.8696 39.433 41.4667 39.433C42.0639 39.433 42.548 39.7759 42.548 40.1989Z" fill="#C87903"/>
<path d="M65.4008 64.4504C56.9864 67.7101 45.4704 66.4403 40.7642 65.398V45.4045L77.2209 34.3423L76.2977 55.8276C76.1714 57.3437 73.8151 61.1908 65.4008 64.4504Z" fill="#FBA423"/>
<path fill-rule="evenodd" clip-rule="evenodd" d="M40.3317 67.3507C39.4159 67.1479 38.7642 66.336 38.7642 65.398V45.4045C38.7642 44.5236 39.3405 43.7464 40.1834 43.4907L76.6402 32.4285C77.2607 32.2402 77.934 32.3645 78.4465 32.7619C78.9589 33.1592 79.2469 33.7804 79.2191 34.4282L78.2959 55.9135C78.2947 55.9403 78.293 55.967 78.2908 55.9937C78.1686 57.4597 77.1472 59.23 75.3277 60.9418C73.4417 62.7164 70.5108 64.6157 66.1232 66.3154C61.5835 68.074 56.3166 68.5788 51.6741 68.5374C47.0137 68.4959 42.8192 67.9016 40.3317 67.3507ZM76.2977 55.8277C76.1714 57.3438 73.8151 61.1909 65.4008 64.4505C56.9864 67.7101 45.4704 66.4403 40.7642 65.398V45.4045L77.2209 34.3424L76.2977 55.8277Z" fill="#C88607"/>
<path d="M76.2977 55.8276C76.1714 57.3437 73.8151 61.1908 65.4007 64.4504V40.125L77.2209 34.3423L76.2977 55.8276Z" fill="#EA9517"/>
<path d="M40.7642 65.398V45.4045L50.9267 42.3209V66.5255C46.7177 66.4317 42.9836 65.8896 40.7642 65.398Z" fill="#FFB547"/>
<path fill-rule="evenodd" clip-rule="evenodd" d="M43.0625 48.6107C43.6148 48.6107 44.0625 49.0584 44.0625 49.6107V59.2357C44.0625 59.7879 43.6148 60.2357 43.0625 60.2357C42.5102 60.2357 42.0625 59.7879 42.0625 59.2357V49.6107C42.0625 49.0584 42.5102 48.6107 43.0625 48.6107Z" fill="#FFD595"/>
<path d="M46.6379 22.663C29.9608 23.4969 23.0752 31.8544 21.717 35.9289L51.1862 34.6971L40.8462 44.9825C45.0155 45.4563 59.9038 46.4468 68.5266 43.5094C77.1494 40.5719 81.8872 32.8019 70.6112 27.4008C61.5904 23.0799 50.8703 22.4419 46.6379 22.663Z" fill="#FBC12D"/>
<path fill-rule="evenodd" clip-rule="evenodd" d="M20.1193 37.1319C19.7237 36.6066 19.6117 35.9203 19.8197 35.2964C21.4899 30.2857 29.2126 21.5325 46.5358 20.6656C50.9737 20.4342 62.0557 21.0852 71.4752 25.5971C74.4842 27.0384 76.6502 28.7404 77.9271 30.6858C79.245 32.6937 79.5442 34.8627 78.954 36.9284C77.8342 40.8476 73.7273 43.8506 69.1715 45.4025C64.5461 46.9782 58.4038 47.4642 53.039 47.525C47.6279 47.5864 42.7802 47.2152 40.6204 46.9697C39.8565 46.8829 39.2099 46.3659 38.9573 45.6397C38.7047 44.9135 38.8907 44.1068 39.4358 43.5646L46.1253 36.9103L21.8006 37.9271C21.1435 37.9546 20.5149 37.6573 20.1193 37.1319ZM51.1862 34.697L40.8462 44.9825C41.4825 45.0548 42.3685 45.1392 43.4437 45.2198C49.4139 45.6672 61.2197 45.9985 68.5266 43.5094C77.1494 40.5719 81.8872 32.8019 70.6112 27.4008C61.5904 23.0799 50.8703 22.4419 46.6379 22.663C32.4183 23.374 25.3171 29.5546 22.6912 33.8864C22.2373 34.635 21.9172 35.3285 21.717 35.9289L51.1862 34.697Z" fill="#C88607"/>
<path fill-rule="evenodd" clip-rule="evenodd" d="M49.9997 32.8506C50.0132 33.4027 49.5765 33.8612 49.0244 33.8747L25.9619 34.4372C25.4098 34.4507 24.9513 34.014 24.9378 33.4619C24.9243 32.9098 25.361 32.4513 25.9131 32.4378L48.9756 31.8753C49.5277 31.8618 49.9862 32.2985 49.9997 32.8506Z" fill="#FFDA7B"/>
<path fill-rule="evenodd" clip-rule="evenodd" d="M71.2731 40.2846C71.4266 40.8151 71.1209 41.3696 70.5904 41.5231C62.4922 43.866 50.7723 44.2388 45.9173 43.8359C45.3669 43.7903 44.9578 43.3071 45.0034 42.7567C45.0491 42.2063 45.5323 41.7971 46.0827 41.8428C50.7694 42.2316 62.2328 41.859 70.0346 39.6019C70.5651 39.4484 71.1196 39.7541 71.2731 40.2846Z" fill="#FFDA7B"/>
<path d="M72.75 55.125C72.75 55.9534 72.2183 56.625 71.5625 56.625C70.9067 56.625 70.375 55.9534 70.375 55.125C70.375 54.2966 70.9067 53.625 71.5625 53.625C72.2183 53.625 72.75 54.2966 72.75 55.125Z" fill="#D08006"/>
<path d="M75.25 51.4659C75.25 52.0981 74.8443 52.6106 74.3438 52.6106C73.8432 52.6106 73.4375 52.0981 73.4375 51.4659C73.4375 50.8337 73.8432 50.3212 74.3438 50.3212C74.8443 50.3212 75.25 50.8337 75.25 51.4659Z" fill="#D08006"/>
<path d="M69.359 57.0509C69.359 57.6831 68.9533 58.1956 68.4528 58.1956C67.9523 58.1956 67.5465 57.6831 67.5465 57.0509C67.5465 56.4186 67.9523 55.9061 68.4528 55.9061C68.9533 55.9061 69.359 56.4186 69.359 57.0509Z" fill="#D08006"/>
<path d="M66.484 61.1563C66.484 61.7885 66.0783 62.301 65.5778 62.301C65.0773 62.301 64.6715 61.7885 64.6715 61.1563C64.6715 60.5241 65.0773 60.0115 65.5778 60.0115C66.0783 60.0115 66.484 60.5241 66.484 61.1563Z" fill="#D08006"/>
<path d="M74.9219 55.7188C74.9219 56.1221 74.663 56.4491 74.3438 56.4491C74.0245 56.4491 73.7656 56.1221 73.7656 55.7188C73.7656 55.3155 74.0245 54.9885 74.3438 54.9885C74.663 54.9885 74.9219 55.3155 74.9219 55.7188Z" fill="#D08006"/>
<path d="M70.9531 59.2813C70.9531 59.6846 70.6943 60.0116 70.375 60.0116C70.0557 60.0116 69.7969 59.6846 69.7969 59.2813C69.7969 58.878 70.0557 58.551 70.375 58.551C70.6943 58.551 70.9531 58.878 70.9531 59.2813Z" fill="#D08006"/>
<path d="M66.484 58.2605C66.484 58.6638 66.2252 58.9907 65.9059 58.9907C65.5866 58.9907 65.3278 58.6638 65.3278 58.2605C65.3278 57.8572 65.5866 57.5302 65.9059 57.5302C66.2252 57.5302 66.484 57.8572 66.484 58.2605Z" fill="#D08006"/>
<path d="M69.359 54.0105C69.359 54.4138 69.1002 54.7407 68.7809 54.7407C68.4616 54.7407 68.2028 54.4138 68.2028 54.0105C68.2028 53.6072 68.4616 53.2802 68.7809 53.2802C69.1002 53.2802 69.359 53.6072 69.359 54.0105Z" fill="#D08006"/>
<path d="M72.7188 51.8804C72.7188 52.2837 72.4599 52.6107 72.1406 52.6107C71.8213 52.6107 71.5625 52.2837 71.5625 51.8804C71.5625 51.4771 71.8213 51.1501 72.1406 51.1501C72.4599 51.1501 72.7188 51.4771 72.7188 51.8804Z" fill="#D08006"/>
<path d="M75.25 47.6304C75.25 48.0337 74.9912 48.3607 74.6719 48.3607C74.3526 48.3607 74.0938 48.0337 74.0938 47.6304C74.0938 47.2271 74.3526 46.9001 74.6719 46.9001C74.9912 46.9001 75.25 47.2271 75.25 47.6304Z" fill="#D08006"/>
<path d="M63.3125 62.7867C63.3125 63.19 63.0537 63.5169 62.7344 63.5169C62.4151 63.5169 62.1562 63.19 62.1562 62.7867C62.1562 62.3833 62.4151 62.0564 62.7344 62.0564C63.0537 62.0564 63.3125 62.3833 63.3125 62.7867Z" fill="#D08006"/>
<path d="M68.4131 60.1945C68.4131 60.4967 68.2191 60.7418 67.9798 60.7418C67.7405 60.7418 67.5465 60.4967 67.5465 60.1945C67.5465 59.8922 67.7405 59.6472 67.9798 59.6472C68.2191 59.6472 68.4131 59.8922 68.4131 60.1945Z" fill="#D08006"/>
<path d="M67.3506 55.3588C67.3506 55.6611 67.1566 55.9061 66.9173 55.9061C66.678 55.9061 66.484 55.6611 66.484 55.3588C66.484 55.0566 66.678 54.8115 66.9173 54.8115C67.1566 54.8115 67.3506 55.0566 67.3506 55.3588Z" fill="#D08006"/>
<path d="M72.75 57.5302C72.75 57.8325 72.556 58.0775 72.3167 58.0775C72.0774 58.0775 71.8834 57.8325 71.8834 57.5302C71.8834 57.2279 72.0774 56.9829 72.3167 56.9829C72.556 56.9829 72.75 57.2279 72.75 57.5302Z" fill="#D08006"/>
<path d="M73.0072 49.374C73.0072 49.6762 72.8132 49.9213 72.5739 49.9213C72.3346 49.9213 72.1406 49.6762 72.1406 49.374C72.1406 49.0717 72.3346 48.8267 72.5739 48.8267C72.8132 48.8267 73.0072 49.0717 73.0072 49.374Z" fill="#D08006"/>
</svg>
