<svg width="96" height="96" viewBox="0 0 96 96" fill="none" xmlns="http://www.w3.org/2000/svg">
<path d="M50.0657 32.3124C50.0657 36.0794 47.0119 39.1332 43.2448 39.1332C39.4778 39.1332 36.424 36.0794 36.424 32.3124C36.424 28.5454 39.4778 25.4916 43.2448 25.4916C47.0119 25.4916 50.0657 28.5454 50.0657 32.3124Z" fill="#E8B73B"/>
<path fill-rule="evenodd" clip-rule="evenodd" d="M52.0657 32.3124C52.0657 37.184 48.1165 41.1332 43.2448 41.1332C38.3732 41.1332 34.424 37.184 34.424 32.3124C34.424 27.4408 38.3732 23.4916 43.2448 23.4916C48.1165 23.4916 52.0657 27.4408 52.0657 32.3124ZM43.2448 39.1332C47.0119 39.1332 50.0657 36.0794 50.0657 32.3124C50.0657 28.5454 47.0119 25.4916 43.2448 25.4916C39.4778 25.4916 36.424 28.5454 36.424 32.3124C36.424 36.0794 39.4778 39.1332 43.2448 39.1332Z" fill="#B6860D"/>
<path d="M43.2448 29.4358C43.2448 30.4163 42.45 31.2112 41.4695 31.2112C40.4889 31.2112 39.6941 30.4163 39.6941 29.4358C39.6941 28.4553 40.4889 27.6604 41.4695 27.6604C42.45 27.6604 43.2448 28.4553 43.2448 29.4358Z" fill="#FED97A"/>
<path d="M77.7479 45.4651C77.7479 49.2322 74.6941 52.2859 70.927 52.2859C67.16 52.2859 64.1062 49.2322 64.1062 45.4651C64.1062 41.6981 67.16 38.6443 70.927 38.6443C74.6941 38.6443 77.7479 41.6981 77.7479 45.4651Z" fill="#975A2E"/>
<path fill-rule="evenodd" clip-rule="evenodd" d="M79.7479 45.4651C79.7479 50.3367 75.7986 54.2859 70.927 54.2859C66.0554 54.2859 62.1062 50.3367 62.1062 45.4651C62.1062 40.5935 66.0554 36.6443 70.927 36.6443C75.7986 36.6443 79.7479 40.5935 79.7479 45.4651ZM70.927 52.2859C74.6941 52.2859 77.7479 49.2322 77.7479 45.4651C77.7479 41.6981 74.6941 38.6443 70.927 38.6443C67.16 38.6443 64.1062 41.6981 64.1062 45.4651C64.1062 49.2322 67.16 52.2859 70.927 52.2859Z" fill="#773F17"/>
<path d="M83.6609 59.7373C79.8001 60.4685 69.9245 56.6836 65.4692 54.6997C58.5673 50.2049 55.5486 44.8969 54.902 42.8048C59.6751 36.2231 67.2571 39.9555 70.4515 42.6443C77.3329 41.7244 79.171 45.7632 79.2299 47.8976C85.1154 48.3111 86.092 51.8884 85.8447 53.6253C87.4765 55.369 88.4868 58.8233 83.6609 59.7373Z" fill="#A8E12D"/>
<path fill-rule="evenodd" clip-rule="evenodd" d="M86.9191 59.4005C86.187 60.0293 85.1636 60.4705 83.847 60.7198C82.6933 60.9383 81.2017 60.8093 79.6353 60.5211C78.0421 60.228 76.264 59.7488 74.4881 59.1906C70.9354 58.0739 67.3164 56.6169 65.0625 55.6133C65.0142 55.5918 64.9678 55.5665 64.9235 55.5377C57.8526 50.9327 54.6711 45.444 53.9466 43.1C53.8537 42.7993 53.9077 42.4724 54.0925 42.2177C56.7332 38.5763 60.2205 37.7655 63.4214 38.2598C66.3456 38.7114 69.0359 40.241 70.7538 41.6005C74.1677 41.2314 76.5257 42.0322 78.0578 43.3731C79.294 44.4551 79.9081 45.8167 80.1305 46.9814C82.8028 47.3213 84.5533 48.3354 85.6119 49.633C86.6026 50.8473 86.9125 52.2207 86.8761 53.2884C87.6746 54.2754 88.3423 55.685 88.167 57.1142C88.0638 57.9557 87.6694 58.7561 86.9191 59.4005ZM86.1819 56.8707C86.2782 56.0852 85.8248 55.0676 85.1145 54.3086C84.9075 54.0874 84.812 53.7843 84.8547 53.4843C84.9438 52.8585 84.8141 51.8189 84.0623 50.8973C83.329 49.9985 81.8999 49.0876 79.1598 48.8951C78.6466 48.859 78.2445 48.4394 78.2303 47.9251C78.2073 47.0906 77.8256 45.8278 76.7406 44.8781C75.6827 43.9522 73.8158 43.2035 70.584 43.6355C70.3049 43.6728 70.023 43.5907 69.8076 43.4094C68.3024 42.1424 65.773 40.6466 63.1162 40.2364C60.6595 39.857 58.1047 40.3944 56.0258 42.9801C56.876 45.1112 59.7692 49.7744 65.9487 53.8185C68.1549 54.7976 71.6616 56.2057 75.0879 57.2827C76.8204 57.8272 78.5136 58.2812 79.9971 58.5541C81.5074 58.8319 82.6981 58.9018 83.4748 58.7547C84.5711 58.5471 85.2312 58.2137 85.616 57.8833C85.9825 57.5685 86.1384 57.2249 86.1819 56.8707Z" fill="#5E9D0D"/>
<path d="M64.7073 35.3124C64.7073 39.0794 61.6535 42.1332 57.8865 42.1332C54.1195 42.1332 51.0657 39.0794 51.0657 35.3124C51.0657 31.5454 54.1195 28.4916 57.8865 28.4916C61.6535 28.4916 64.7073 31.5454 64.7073 35.3124Z" fill="#975A2E"/>
<path fill-rule="evenodd" clip-rule="evenodd" d="M66.7073 35.3124C66.7073 40.184 62.7581 44.1332 57.8865 44.1332C53.0149 44.1332 49.0657 40.184 49.0657 35.3124C49.0657 30.4408 53.0149 26.4916 57.8865 26.4916C62.7581 26.4916 66.7073 30.4408 66.7073 35.3124ZM57.8865 42.1332C61.6535 42.1332 64.7073 39.0794 64.7073 35.3124C64.7073 31.5454 61.6535 28.4916 57.8865 28.4916C54.1195 28.4916 51.0657 31.5454 51.0657 35.3124C51.0657 39.0794 54.1195 42.1332 57.8865 42.1332Z" fill="#773F17"/>
<path d="M57.8865 32.0525C57.8865 33.2447 56.92 34.2112 55.7278 34.2112C54.5356 34.2112 53.5691 33.2447 53.5691 32.0525C53.5691 30.8603 54.5356 29.8938 55.7278 29.8938C56.92 29.8938 57.8865 30.8603 57.8865 32.0525Z" fill="#CA7A3F"/>
<path d="M29.1877 44.1332C29.1877 47.9002 26.134 50.954 22.3669 50.954C18.5999 50.954 15.5461 47.9002 15.5461 44.1332C15.5461 40.3662 18.5999 37.3124 22.3669 37.3124C26.134 37.3124 29.1877 40.3662 29.1877 44.1332Z" fill="#975A2E"/>
<path fill-rule="evenodd" clip-rule="evenodd" d="M31.1877 44.1332C31.1877 49.0048 27.2385 52.954 22.3669 52.954C17.4953 52.954 13.5461 49.0048 13.5461 44.1332C13.5461 39.2616 17.4953 35.3124 22.3669 35.3124C27.2385 35.3124 31.1877 39.2616 31.1877 44.1332ZM22.3669 50.954C26.134 50.954 29.1877 47.9002 29.1877 44.1332C29.1877 40.3662 26.134 37.3124 22.3669 37.3124C18.5999 37.3124 15.5461 40.3662 15.5461 44.1332C15.5461 47.9002 18.5999 50.954 22.3669 50.954Z" fill="#773F17"/>
<path d="M63.5625 48.4218C59.8012 45.758 58.8902 40.5794 61.5277 36.8551C64.1653 33.1308 69.3526 32.271 73.114 34.9348L63.5625 48.4218Z" fill="#FA5252"/>
<path fill-rule="evenodd" clip-rule="evenodd" d="M62.4066 50.0539C63.308 50.6923 64.5563 50.4791 65.1947 49.5777L74.7461 36.0907C75.3845 35.1893 75.1713 33.941 74.2699 33.3027C69.6224 30.0113 63.1823 31.0583 59.8956 35.6992C56.6089 40.3401 57.7591 46.7626 62.4066 50.0539ZM62.0684 47.071C62.5011 47.5687 62.9999 48.0233 63.5625 48.4218L73.114 34.9348C72.5514 34.5364 71.9569 34.2168 71.3438 33.9738C67.8579 32.5923 63.7708 33.6878 61.5277 36.8551C59.2847 40.0223 59.608 44.2414 62.0684 47.071Z" fill="#BC2121"/>
<path d="M21.149 34.3329C22.2786 29.8643 26.781 27.1485 31.2055 28.2669C35.6301 29.3853 38.3012 33.9144 37.1717 38.3829L21.149 34.3329Z" fill="#FA5252"/>
<path fill-rule="evenodd" clip-rule="evenodd" d="M19.21 33.8427C18.9393 34.9136 19.588 36.0012 20.6589 36.2719L36.6816 40.3219C37.7524 40.5926 38.84 39.9439 39.1107 38.8731C40.5063 33.3518 37.2091 27.7215 31.6957 26.3279C26.1822 24.9342 20.6056 28.3214 19.21 33.8427ZM21.8707 32.4524C21.5624 33.0353 21.318 33.6645 21.149 34.3329L37.1717 38.3829C37.3406 37.7146 37.4245 37.0449 37.4303 36.3854C37.4629 32.6359 34.9683 29.218 31.2055 28.2669C27.4428 27.3158 23.6237 29.1377 21.8707 32.4524Z" fill="#BC2121"/>
<path d="M28.1168 32.2613C27.7302 33.1624 26.6863 33.5795 25.7852 33.1929C24.8841 32.8063 24.467 31.7624 24.8536 30.8613C25.2402 29.9602 26.2841 29.5431 27.1852 29.9297C28.0863 30.3163 28.5034 31.3602 28.1168 32.2613Z" fill="#FE9595"/>
<path d="M67.1943 37.0878C67.1943 38.0683 66.3994 38.8632 65.4189 38.8632C64.4384 38.8632 63.6435 38.0683 63.6435 37.0878C63.6435 36.1072 64.4384 35.3124 65.4189 35.3124C66.3994 35.3124 67.1943 36.1072 67.1943 37.0878Z" fill="#FE9595"/>
<path d="M14.0446 59.8547C18.9025 61.0768 31.5324 56.2699 37.2401 53.7137C46.1334 47.7595 50.1434 40.467 51.0367 37.565C45.2352 28.0893 35.5089 32.9392 31.3709 36.5486C22.6984 34.9079 20.2277 40.4801 20.0764 43.4712C12.6158 43.7519 11.2515 48.7204 11.5019 51.1696C9.3748 53.5326 7.97227 58.3269 14.0446 59.8547Z" fill="#A8E12D"/>
<path fill-rule="evenodd" clip-rule="evenodd" d="M10.0732 58.8864C10.9256 59.7536 12.159 60.4114 13.8007 60.8244C15.2208 61.1817 17.0885 61.0811 19.0765 60.7572C21.0936 60.4286 23.3532 59.8489 25.6159 59.1574C30.1427 57.7741 34.7666 55.9172 37.6488 54.6263C37.7002 54.6033 37.7496 54.576 37.7964 54.5446C46.8687 48.4706 51.0275 40.9939 51.9925 37.8592C52.0769 37.5849 52.0394 37.2876 51.8896 37.0428C50.3512 34.5302 48.5136 32.9079 46.515 31.992C44.5203 31.0778 42.4358 30.8994 40.4507 31.1583C36.7322 31.6433 33.2737 33.6708 31.0822 35.4821C26.7661 34.7728 23.7877 35.7793 21.8561 37.5325C20.2214 39.0163 19.4398 40.9429 19.1761 42.526C15.7048 42.8341 13.4588 44.1719 12.1108 45.8899C10.8228 47.5314 10.4341 49.4204 10.478 50.8296C9.42239 52.1351 8.54228 54.0209 8.70204 55.9096C8.79157 56.9681 9.20951 58.0076 10.0732 58.8864ZM10.6949 55.7411C10.5836 54.4252 11.2923 52.8971 12.2452 51.8386C12.4341 51.6287 12.5255 51.3488 12.4967 51.0679C12.3933 50.0559 12.6276 48.4712 13.6843 47.1245C14.7124 45.8141 16.6199 44.6019 20.114 44.4705C20.6318 44.451 21.049 44.0392 21.0751 43.5217C21.1406 42.2273 21.7177 40.3592 23.2003 39.0134C24.6401 37.7066 27.0861 36.7557 31.1851 37.5312C31.4864 37.5882 31.7972 37.5038 32.0283 37.3022C34.0069 35.5763 37.2957 33.5867 40.7093 33.1415C42.3982 32.9212 44.0918 33.0814 45.6817 33.8101C47.1728 34.4935 48.6353 35.7054 49.9371 37.6971C48.8699 40.6293 44.9906 47.2981 36.7539 52.8357C33.9232 54.0996 29.4208 55.9034 25.0314 57.2447C22.816 57.9217 20.6505 58.4744 18.7549 58.7832C16.8301 59.0968 15.2974 59.1387 14.2886 58.8849C12.8941 58.534 12.0256 58.0196 11.4996 57.4844C10.985 56.9608 10.7479 56.3675 10.6949 55.7411Z" fill="#5E9D0D"/>
<path d="M48 37C28.7898 37 12.9781 51.551 10.9856 70.2324C10.7513 72.4291 12.5647 74.2261 14.7739 74.2261H81.2261C83.4353 74.2261 85.2487 72.4291 85.0144 70.2324C83.0219 51.551 67.2102 37 48 37Z" fill="#F7A913"/>
<path fill-rule="evenodd" clip-rule="evenodd" d="M8.99687 70.0203C11.0967 50.3331 27.7564 35 48 35C68.2436 35 84.9033 50.3331 87.0031 70.0203C87.3787 73.5413 84.4757 76.2261 81.2261 76.2261H14.7739C11.5243 76.2261 8.62133 73.5413 8.99687 70.0203ZM10.9856 70.2324C12.9781 51.551 28.7898 37 48 37C67.2102 37 83.0219 51.551 85.0144 70.2324C85.2487 72.4291 83.4353 74.2261 81.2261 74.2261H14.7739C12.5647 74.2261 10.7513 72.4291 10.9856 70.2324Z" fill="#AE6C08"/>
<path fill-rule="evenodd" clip-rule="evenodd" d="M74.8588 74.2262C75.6713 73.4929 76.1485 72.421 76.0327 71.2312C74.4989 55.477 63.9888 42.3525 49.6822 37.0374C68.1264 37.8576 83.0804 52.0992 85.0144 70.2324C85.2487 72.4291 83.4353 74.2262 81.2261 74.2262H74.8588Z" fill="#ED9E05"/>
<path d="M27.2875 65.0294C25.886 68.8188 22.0992 70.9104 18.8293 69.7011C15.5595 68.4918 14.0449 64.4395 15.4464 60.6501C16.8478 56.8607 22.4177 48.6656 25.6875 49.8749C28.9573 51.0842 28.689 61.24 27.2875 65.0294Z" fill="#FFBB38"/>
<path d="M73.4699 67.9375C73.4699 68.835 72.8064 69.5625 71.988 69.5625C71.1695 69.5625 70.506 68.835 70.506 67.9375C70.506 67.04 71.1695 66.3125 71.988 66.3125C72.8064 66.3125 73.4699 67.04 73.4699 67.9375Z" fill="#CB8807"/>
<path d="M75.4589 61.8872C75.4589 62.7847 74.7954 63.5122 73.9769 63.5122C73.1584 63.5122 72.4949 62.7847 72.4949 61.8872C72.4949 60.9897 73.1584 60.2622 73.9769 60.2622C74.7954 60.2622 75.4589 60.9897 75.4589 61.8872Z" fill="#CB8807"/>
<path d="M63.8817 69.5625C63.8817 70.46 63.2182 71.1875 62.3998 71.1875C61.5813 71.1875 60.9178 70.46 60.9178 69.5625C60.9178 68.665 61.5813 67.9375 62.3998 67.9375C63.2182 67.9375 63.8817 68.665 63.8817 69.5625Z" fill="#CB8807"/>
<path d="M77.5674 69.5625C77.5674 70.2787 77.0379 70.8594 76.3847 70.8594C75.7315 70.8594 75.2019 70.2787 75.2019 69.5625C75.2019 68.8463 75.7315 68.2656 76.3847 68.2656C77.0379 68.2656 77.5674 68.8463 77.5674 69.5625Z" fill="#CB8807"/>
<path d="M68.2666 66.0842C68.2666 66.8005 67.737 67.3811 67.0838 67.3811C66.4306 67.3811 65.9011 66.8005 65.9011 66.0842C65.9011 65.368 66.4306 64.7874 67.0838 64.7874C67.737 64.7874 68.2666 65.368 68.2666 66.0842Z" fill="#CB8807"/>
<path d="M79.9329 60.2622C79.9329 60.9785 79.4033 61.5591 78.7501 61.5591C78.0969 61.5591 77.5674 60.9785 77.5674 60.2622C77.5674 59.546 78.0969 58.9653 78.7501 58.9653C79.4033 58.9653 79.9329 59.546 79.9329 60.2622Z" fill="#CB8807"/>
<path d="M81.7909 68.75C81.7909 69.4662 81.2614 70.0469 80.6082 70.0469C79.955 70.0469 79.4254 69.4662 79.4254 68.75C79.4254 68.0338 79.955 67.4531 80.6082 67.4531C81.2614 67.4531 81.7909 68.0338 81.7909 68.75Z" fill="#CB8807"/>
<path d="M69.9262 71.1373C69.9262 71.7395 69.4809 72.2277 68.9317 72.2277C68.3825 72.2277 67.9372 71.7395 67.9372 71.1373C67.9372 70.5351 68.3825 70.0469 68.9317 70.0469C69.4809 70.0469 69.9262 70.5351 69.9262 71.1373Z" fill="#CB8807"/>
<path d="M58.4378 70.4219C58.4378 71.0241 57.9926 71.5123 57.4434 71.5123C56.8942 71.5123 56.4489 71.0241 56.4489 70.4219C56.4489 69.8196 56.8942 69.3314 57.4434 69.3314C57.9926 69.3314 58.4378 69.8196 58.4378 70.4219Z" fill="#CB8807"/>
<path d="M63.6617 65.6096C63.6617 66.0637 63.326 66.4318 62.9118 66.4318C62.4977 66.4318 62.162 66.0637 62.162 65.6096C62.162 65.1555 62.4977 64.7874 62.9118 64.7874C63.326 64.7874 63.6617 65.1555 63.6617 65.6096Z" fill="#CB8807"/>
<path d="M71.6643 64.3344C71.6643 64.7885 71.3286 65.1566 70.9145 65.1566C70.5004 65.1566 70.1646 64.7885 70.1646 64.3344C70.1646 63.8803 70.5004 63.5122 70.9145 63.5122C71.3286 63.5122 71.6643 63.8803 71.6643 64.3344Z" fill="#CB8807"/>
<path d="M71.4259 61.0844C71.4259 61.5385 71.0901 61.9066 70.676 61.9066C70.2619 61.9066 69.9262 61.5385 69.9262 61.0844C69.9262 60.6303 70.2619 60.2622 70.676 60.2622C71.0901 60.2622 71.4259 60.6303 71.4259 61.0844Z" fill="#CB8807"/>
<path d="M68.5835 62.7499C68.5835 63.204 68.2478 63.5722 67.8337 63.5722C67.4195 63.5722 67.0838 63.204 67.0838 62.7499C67.0838 62.2959 67.4195 61.9277 67.8337 61.9277C68.2478 61.9277 68.5835 62.2959 68.5835 62.7499Z" fill="#CB8807"/>
<path d="M76.9586 56.9062C76.9586 57.3603 76.6228 57.7284 76.2087 57.7284C75.7946 57.7284 75.4589 57.3603 75.4589 56.9062C75.4589 56.4521 75.7946 56.084 76.2087 56.084C76.6228 56.084 76.9586 56.4521 76.9586 56.9062Z" fill="#CB8807"/>
<path d="M66.2058 69.5624C66.2058 70.0165 65.87 70.3847 65.4559 70.3847C65.0418 70.3847 64.7061 70.0165 64.7061 69.5624C64.7061 69.1084 65.0418 68.7402 65.4559 68.7402C65.87 68.7402 66.2058 69.1084 66.2058 69.5624Z" fill="#CB8807"/>
<path d="M54.3876 71.9868C54.3876 72.327 54.1361 72.6028 53.8259 72.6028C53.5156 72.6028 53.2641 72.327 53.2641 71.9868C53.2641 71.6466 53.5156 71.3708 53.8259 71.3708C54.1361 71.3708 54.3876 71.6466 54.3876 71.9868Z" fill="#CB8807"/>
<path d="M60.7436 72.2278C60.7436 72.5679 60.4921 72.8437 60.1819 72.8437C59.8716 72.8437 59.6201 72.5679 59.6201 72.2278C59.6201 71.8876 59.8716 71.6118 60.1819 71.6118C60.4921 71.6118 60.7436 71.8876 60.7436 72.2278Z" fill="#CB8807"/>
<path d="M79.9329 71.8035C79.9329 72.1436 79.6814 72.4194 79.3711 72.4194C79.0609 72.4194 78.8094 72.1436 78.8094 71.8035C78.8094 71.4633 79.0609 71.1875 79.3711 71.1875C79.6814 71.1875 79.9329 71.4633 79.9329 71.8035Z" fill="#CB8807"/>
<path d="M83.2261 70.5213C83.2261 70.8615 82.9746 71.1373 82.6644 71.1373C82.3542 71.1373 82.1027 70.8615 82.1027 70.5213C82.1027 70.1812 82.3542 69.9054 82.6644 69.9054C82.9746 69.9054 83.2261 70.1812 83.2261 70.5213Z" fill="#CB8807"/>
<path d="M82.1027 65.6096C82.1027 65.9498 81.8512 66.2256 81.5409 66.2256C81.2307 66.2256 80.9792 65.9498 80.9792 65.6096C80.9792 65.2694 81.2307 64.9937 81.5409 64.9937C81.8512 64.9937 82.1027 65.2694 82.1027 65.6096Z" fill="#CB8807"/>
<path d="M73.9769 71.5123C73.9769 72.1145 73.5316 72.6027 72.9824 72.6027C72.4332 72.6027 71.988 72.1145 71.988 71.5123C71.988 70.9101 72.4332 70.4219 72.9824 70.4219C73.5316 70.4219 73.9769 70.9101 73.9769 71.5123Z" fill="#CB8807"/>
<path d="M79.4254 64.7874C79.4254 65.9126 78.5936 66.8247 77.5674 66.8247C76.5412 66.8247 75.7094 65.9126 75.7094 64.7874C75.7094 63.6622 76.5412 62.75 77.5674 62.75C78.5936 62.75 79.4254 63.6622 79.4254 64.7874Z" fill="#CB8807"/>
<path fill-rule="evenodd" clip-rule="evenodd" d="M39.5846 68.6747C38.8292 67.9459 38.3727 67.558 37.5119 67.6222C36.6711 67.685 36.1912 68.0715 35.5028 68.6855C35.4763 68.7091 35.4494 68.7332 35.4223 68.7575C34.7498 69.3591 33.8604 70.1548 32.3916 70.3649C30.491 70.6368 29.1928 69.7541 28.1975 69.0774C28.1854 69.0692 28.1734 69.061 28.1615 69.0529C27.1234 68.3473 26.3951 67.8747 25.2954 67.9941C24.2412 68.1085 23.0871 68.622 22.1449 69.1588C21.6851 69.4208 21.2982 69.6752 21.0273 69.8635C20.8922 69.9574 20.7868 70.0342 20.7167 70.0864C20.6817 70.1124 20.6555 70.1323 20.6389 70.145L20.6213 70.1586L20.6185 70.1608C20.1845 70.5021 19.5557 70.4274 19.2142 69.9935C18.8726 69.5595 18.9475 68.9308 19.3815 68.5892L19.9998 69.3747C19.3815 68.5892 19.3814 68.5893 19.3815 68.5892L19.3832 68.5879L19.3859 68.5858L19.3942 68.5793L19.4223 68.5576C19.446 68.5394 19.4797 68.5139 19.5226 68.482C19.6084 68.4181 19.7313 68.3286 19.8859 68.2211C20.1944 68.0068 20.6324 67.7187 21.1548 67.4211C22.1772 66.8386 23.6168 66.1646 25.0796 66.0058C26.9431 65.8035 28.2239 66.6757 29.2011 67.3412C29.2295 67.3606 29.2577 67.3798 29.2857 67.3988C30.3115 68.096 31.0274 68.5397 32.1084 68.3851C32.9677 68.2622 33.458 67.8294 34.1715 67.1929C34.8788 66.5621 35.7988 65.7445 37.3631 65.6278C39.1682 65.4931 40.2049 66.4937 40.9456 67.2087L40.9733 67.2354C41.7425 67.9776 42.2136 68.4018 43.0951 68.3754C44.0029 68.3483 44.4816 67.9537 45.2041 67.352C45.9431 66.7364 46.915 65.9337 48.6022 66.0007C50.3245 66.0692 51.2504 67.1219 51.8896 67.8486C51.9167 67.8793 51.9432 67.9095 51.9692 67.9389C52.6377 68.6953 53.0167 69.0519 53.8124 69.002C54.6288 68.9507 55.171 68.4779 56.0083 67.7068L56.0424 67.6754C56.8068 66.9712 57.8609 66 59.5 66C60.4473 66 61.1801 66.256 61.7786 66.6666C62.3084 67.0301 62.702 67.4995 63.0003 67.8551C63.0178 67.8759 63.0349 67.8963 63.0517 67.9163C63.3852 68.3128 63.6187 68.5726 63.904 68.7513C64.1534 68.9076 64.4946 69.0315 65.073 69.0014C66.0649 68.9497 66.9106 68.4981 67.984 67.9034L68.0477 67.8681C69.0489 67.3131 70.2692 66.6366 71.7637 66.5637C73.2705 66.4901 74.6041 67.0369 75.5175 67.5523C75.9818 67.8143 76.3585 68.08 76.621 68.2818C76.7527 68.383 76.857 68.469 76.9304 68.5318C76.9672 68.5632 76.9963 68.5888 77.0175 68.6077L77.0432 68.6309L77.0514 68.6385L77.0544 68.6412L77.0556 68.6423C77.0558 68.6425 77.0566 68.6432 76.375 69.375L77.0566 68.6432C77.4607 69.0197 77.4832 69.6524 77.1068 70.0566C76.731 70.46 76.0998 70.4831 75.6955 70.1087C75.6955 70.1086 75.6956 70.1087 75.6955 70.1087C75.6952 70.1084 75.6947 70.1079 75.6944 70.1076C75.6942 70.1075 75.6946 70.1078 75.6944 70.1076L75.6935 70.1068M75.6935 70.1068L75.6847 70.0989C75.6742 70.0895 75.6563 70.0738 75.6315 70.0525C75.5817 70.01 75.5043 69.9459 75.4025 69.8677C75.198 69.7106 74.9002 69.5005 74.5346 69.2941C73.7883 68.873 72.8407 68.5135 71.8613 68.5613C70.8706 68.6097 70.0255 69.0589 68.9532 69.6529L68.8814 69.6927C67.8828 70.2464 66.6658 70.9211 65.177 70.9986C64.2206 71.0485 63.4663 70.8373 62.842 70.4461C62.2583 70.0804 61.842 69.5853 61.5289 69.2129L61.521 69.2036C61.1775 68.7951 60.9426 68.5185 60.6471 68.3158C60.3893 68.1389 60.0527 68 59.5 68C58.7106 68 58.1832 68.4228 57.3631 69.178C57.3314 69.2072 57.2992 69.237 57.2665 69.2672C56.524 69.9537 55.5004 70.9 53.9376 70.998C52.1053 71.113 51.1461 70.0277 50.4757 69.2692L50.4706 69.2634C49.7734 68.4746 49.3635 68.0326 48.5228 67.9992C47.6396 67.9641 47.1784 68.3104 46.4841 68.8887C46.4602 68.9086 46.4361 68.9288 46.4116 68.9492C45.7083 69.5366 44.7625 70.3265 43.1549 70.3746C41.3965 70.4271 40.3761 69.4402 39.6514 68.7392C39.6288 68.7174 39.6066 68.6959 39.5846 68.6747" fill="#FFC961"/>
<path fill-rule="evenodd" clip-rule="evenodd" d="M54.1786 60.2273C54.9339 59.4985 55.3904 59.1106 56.2512 59.1748C57.092 59.2376 57.572 59.6241 58.2603 60.2381C58.2868 60.2618 58.3137 60.2858 58.3409 60.3101C59.0133 60.9117 59.9027 61.7074 61.3715 61.9175C63.2721 62.1894 64.5704 61.3067 65.5656 60.63C65.5777 60.6218 65.5897 60.6136 65.6017 60.6055C66.6397 59.8999 67.368 59.4274 68.4677 59.5467C69.5219 59.6612 70.6761 60.1747 71.6182 60.7114C72.078 60.9734 72.4649 61.2278 72.7358 61.4161C72.871 61.51 72.9763 61.5868 73.0464 61.639C73.0814 61.665 73.1076 61.6849 73.1242 61.6977L73.1419 61.7113L73.1446 61.7134C73.5786 62.0547 74.2074 61.98 74.5489 61.5461C74.8905 61.1121 74.8156 60.4834 74.3816 60.1418L73.7633 60.9273C74.3816 60.1418 74.3818 60.1419 74.3816 60.1418L74.3799 60.1405L74.3772 60.1384L74.3689 60.1319L74.3408 60.1102C74.3171 60.092 74.2834 60.0665 74.2405 60.0346C74.1547 59.9707 74.0318 59.8812 73.8772 59.7738C73.5687 59.5594 73.1307 59.2713 72.6083 58.9737C71.5859 58.3912 70.1464 57.7172 68.6835 57.5584C66.82 57.3561 65.5392 58.2283 64.5621 58.8938C64.5336 58.9132 64.5054 58.9324 64.4774 58.9514C63.4516 59.6486 62.7357 60.0923 61.6547 59.9377C60.7954 59.8148 60.3052 59.382 59.5916 58.7455C58.8844 58.1148 57.9643 57.2971 56.4 57.1804C54.5949 57.0457 53.5582 58.0463 52.8175 58.7613L52.7899 58.788C52.0206 59.5302 51.5495 59.9544 50.668 59.9281C49.7602 59.9009 49.2815 59.5063 48.559 58.9046C47.82 58.289 46.8481 57.4863 45.1609 57.5534C43.4386 57.6218 42.5127 58.6745 41.8735 59.4012C41.8465 59.4319 41.82 59.4621 41.7939 59.4915C41.1254 60.2479 40.7464 60.6045 39.9507 60.5546C39.1343 60.5034 38.5921 60.0305 37.7548 59.2594L37.7208 59.228C36.9564 58.5238 35.9022 57.5526 34.2631 57.5526C33.3158 57.5526 32.583 57.8086 31.9845 58.2192C31.4547 58.5827 31.0611 59.0521 30.7628 59.4077C30.7454 59.4285 30.7282 59.4489 30.7114 59.4689C30.3779 59.8655 30.1444 60.1252 29.8592 60.3039C29.6097 60.4602 29.2685 60.5841 28.6901 60.554C27.6982 60.5023 26.8526 60.0507 25.7791 59.456L25.7154 59.4208C24.7142 58.8657 23.4939 58.1893 21.9994 58.1163C21.4477 58.0894 20.9787 58.5147 20.9518 59.0663C20.9249 59.618 21.3502 60.087 21.9018 60.1139C22.8925 60.1623 23.7376 60.6115 24.8099 61.2055L24.8817 61.2453C25.8803 61.799 27.0973 62.4737 28.5861 62.5513C29.5426 62.6011 30.2969 62.3899 30.9212 61.9987C31.5048 61.633 31.9211 61.1379 32.2343 60.7655L32.2421 60.7562C32.5856 60.3477 32.8205 60.0712 33.116 59.8684C33.3738 59.6915 33.7104 59.5526 34.2631 59.5526C35.0525 59.5526 35.5799 59.9754 36.4 60.7306C36.4317 60.7598 36.4639 60.7896 36.4967 60.8199C37.2392 61.5063 38.2627 62.4526 39.8255 62.5507C41.6578 62.6656 42.617 61.5803 43.2874 60.8218L43.2925 60.816C43.9897 60.0272 44.3996 59.5852 45.2403 59.5518C46.1236 59.5167 46.5847 59.8631 47.279 60.4413C47.3029 60.4612 47.3271 60.4814 47.3515 60.5018C48.0548 61.0892 49.0006 61.8791 50.6082 61.9272C52.3667 61.9798 53.3871 60.9928 54.1117 60.2918C54.1343 60.27 54.1566 60.2485 54.1786 60.2273Z" fill="#FFC961"/>
<path fill-rule="evenodd" clip-rule="evenodd" d="M58.1633 51.9223C58.9187 52.6511 59.3752 53.0389 60.236 52.9747C61.0768 52.912 61.5567 52.5254 62.2451 51.9114C62.2716 51.8878 62.2984 51.8638 62.3256 51.8394C62.9981 51.2378 63.8875 50.4421 65.3563 50.232C67.2569 49.9601 68.5551 50.8428 69.5504 51.5195C69.5624 51.5277 69.5745 51.5359 69.5864 51.5441C70.6245 52.2496 71.3528 52.7222 72.4525 52.6028C73.0015 52.5432 73.4949 52.94 73.5545 53.4891C73.6141 54.0381 73.2173 54.5315 72.6683 54.5911C70.8048 54.7934 69.524 53.9212 68.5468 53.2558C68.5184 53.2364 68.4901 53.2172 68.4622 53.1981C67.4364 52.5009 66.7205 52.0572 65.6395 52.2118C64.7801 52.3348 64.2899 52.7676 63.5764 53.404C62.8691 54.0348 61.9491 54.8524 60.3848 54.9691C58.5796 55.1038 57.543 54.1032 56.8023 53.3882L56.7746 53.3616C56.0054 52.6193 55.5343 52.1951 54.6528 52.2215C53.745 52.2486 53.2663 52.6432 52.5438 53.245C51.8048 53.8605 50.8328 54.6632 49.1457 54.5962C47.4234 54.5278 46.4975 53.4751 45.8582 52.7483C45.8312 52.7176 45.8047 52.6875 45.7787 52.658C45.1101 51.9016 44.7312 51.545 43.9355 51.595C43.119 51.6462 42.5769 52.1191 41.7396 52.8901L41.7055 52.9215C40.9411 53.6258 39.887 54.5969 38.2479 54.5969C37.3006 54.5969 36.5678 54.3409 35.9693 53.9303C35.4395 53.5668 35.0458 53.0975 34.7476 52.7419C34.7301 52.721 34.713 52.7006 34.6962 52.6806C34.3627 52.2841 34.1292 52.0243 33.8439 51.8456C33.5945 51.6893 33.2533 51.5654 32.6749 51.5956C31.6829 51.6472 30.8373 52.0988 29.7639 52.6935L29.7002 52.7288C28.699 53.2838 27.4786 53.9603 25.9841 54.0332C25.4325 54.0602 24.9635 53.6348 24.9366 53.0832C24.9096 52.5316 25.335 52.0626 25.8866 52.0356C26.8773 51.9873 27.7224 51.5381 28.7947 50.944C28.8185 50.9308 28.8424 50.9176 28.8665 50.9042C29.8651 50.3506 31.0821 49.6758 32.5709 49.5983C33.5273 49.5485 34.2816 49.7596 34.9059 50.1508C35.4895 50.5166 35.9058 51.0116 36.219 51.3841L36.2268 51.3933C36.5703 51.8018 36.8053 52.0784 37.1007 52.2811C37.3586 52.458 37.6952 52.5969 38.2479 52.5969C39.0372 52.5969 39.5647 52.1741 40.3848 51.4189C40.4165 51.3897 40.4487 51.36 40.4814 51.3297C41.2239 50.6432 42.2475 49.6969 43.8103 49.5989C45.6426 49.4839 46.6018 50.5692 47.2721 51.3277L47.2772 51.3335C47.9744 52.1223 48.3844 52.5644 49.2251 52.5978C50.1083 52.6328 50.5695 52.2865 51.2638 51.7082C51.2877 51.6883 51.3118 51.6681 51.3363 51.6477C52.0396 51.0603 52.9853 50.2704 54.593 50.2224C56.3514 50.1698 57.3718 51.1568 58.0965 51.8577C58.119 51.8795 58.1413 51.901 58.1633 51.9223Z" fill="#FFC961"/>
<path fill-rule="evenodd" clip-rule="evenodd" d="M62.5671 43.5818C63.3225 44.3106 63.779 44.6985 64.6398 44.6342C65.1905 44.5931 65.6703 45.0063 65.7114 45.5571C65.7525 46.1078 65.3393 46.5876 64.7886 46.6287C62.9834 46.7634 61.9468 45.7628 61.206 45.0478C61.1968 45.0388 61.1876 45.0299 61.1784 45.0211C60.4091 44.2789 59.9381 43.8547 59.0566 43.881C58.1488 43.9082 57.6701 44.3027 56.9476 44.9045C56.2085 45.52 55.2366 46.3228 53.5495 46.2557C51.8272 46.1873 50.9013 45.1346 50.262 44.4079C50.235 44.3771 50.2085 44.347 50.1825 44.3175C49.5139 43.5612 49.135 43.2046 48.3393 43.2545C47.5228 43.3057 46.9807 43.7786 46.1434 44.5497L46.1093 44.581C45.3449 45.2853 44.2908 46.2565 42.6517 46.2565C41.7043 46.2565 40.9715 46.0004 40.3731 45.5898C39.8433 45.2263 39.4496 44.757 39.1514 44.4014C39.1339 44.3806 39.1168 44.3601 39.0999 44.3401C38.7665 43.9436 38.5329 43.6839 38.2477 43.5051C37.9983 43.3488 37.657 43.225 37.0787 43.2551C36.0867 43.3068 35.2411 43.7584 34.1677 44.353C34.1465 44.3647 34.1253 44.3765 34.104 44.3883C33.1028 44.9433 31.8824 45.6198 30.3879 45.6928C29.8363 45.7197 29.3673 45.2944 29.3403 44.7427C29.3134 44.1911 29.7388 43.7221 30.2904 43.6952C31.2811 43.6468 32.1262 43.1976 33.1985 42.6036C33.2223 42.5904 33.2462 42.5771 33.2703 42.5637C34.2689 42.0101 35.4858 41.3354 36.9746 41.2578C37.9311 41.208 38.6854 41.4192 39.3097 41.8104C39.8933 42.1761 40.3096 42.6712 40.6228 43.0436L40.6306 43.0529C40.9741 43.4614 41.2091 43.7379 41.5045 43.9407C41.7624 44.1175 42.099 44.2565 42.6517 44.2565C43.441 44.2565 43.9684 43.8337 44.7886 43.0784C44.8202 43.0493 44.8524 43.0195 44.8852 42.9892C45.6277 42.3028 46.6513 41.3565 48.2141 41.2584C50.0463 41.1435 51.0056 42.2288 51.6759 42.9873L51.681 42.993C52.3782 43.7819 52.7882 44.2239 53.6289 44.2573C54.5121 44.2924 54.9733 43.946 55.6676 43.3677C55.6915 43.3479 55.7156 43.3277 55.74 43.3073C56.4434 42.7199 57.3891 41.93 58.9968 41.8819C60.7552 41.8293 61.7756 42.8163 62.5003 43.5172C62.5228 43.5391 62.5451 43.5606 62.5671 43.5818Z" fill="#FFC961"/>
<path fill-rule="evenodd" clip-rule="evenodd" d="M33.6322 43.7791C33.8923 44.2663 33.7082 44.8721 33.2209 45.1322C25.1669 49.4317 20.0431 57.1488 18.1943 62.4541C18.0126 62.9756 17.4425 63.2511 16.9209 63.0693C16.3994 62.8876 16.124 62.3175 16.3057 61.7959C18.2902 56.1012 23.7081 47.9433 32.2791 43.3678C32.7663 43.1078 33.3721 43.2919 33.6322 43.7791Z" fill="#FFEECE"/>
</svg>
