<svg width="96" height="97" viewBox="0 0 96 97" fill="none" xmlns="http://www.w3.org/2000/svg">
<path d="M55.1868 30.1032C56.5905 29.7523 60.938 29.4696 62.9362 29.3721C63.3262 29.3721 65.599 28.8257 70.9781 30.1032C76.1664 31.3353 78.3376 38.4375 78.5813 42.2391C79.1174 46.8692 80.3944 58.2058 81.2132 66.5108C82.032 74.8158 72.1039 79.0229 62.6039 79.0229C52.0148 79.0229 45.3903 73.2104 45.3904 66.5108C45.3904 62.3161 46.9695 49.6083 47.4374 42.2391C48.0223 33.0275 53.4322 30.5418 55.1868 30.1032Z" fill="#F6EDC0"/>
<path fill-rule="evenodd" clip-rule="evenodd" d="M62.8584 27.3735C62.8737 27.372 62.9023 27.369 62.9482 27.3638L62.9703 27.3613C63.0776 27.3491 63.2339 27.3314 63.4239 27.3145C63.8373 27.2778 64.3976 27.2459 65.122 27.2589C66.569 27.2848 68.6252 27.4888 71.4402 28.1573C74.8551 28.9683 77.0723 31.655 78.417 34.3016C79.7642 36.9533 80.429 39.9216 80.5737 42.0581C81.1135 46.7224 82.3859 58.0217 83.2035 66.3146C83.7132 71.4844 80.7929 75.2612 76.7891 77.6069C72.8342 79.924 67.6017 81.0229 62.6039 81.0229C51.431 81.0229 43.3903 74.7721 43.3904 66.5108C43.3904 64.29 43.7998 59.9409 44.248 55.3702C44.3011 54.8283 44.355 54.282 44.409 53.7338C44.8179 49.5835 45.2372 45.3282 45.4414 42.1123C45.7595 37.1033 47.4109 33.7388 49.3869 31.5433C51.3339 29.38 53.4933 28.465 54.7017 28.1629C55.5902 27.9408 57.1983 27.773 58.6715 27.6496C60.2117 27.5205 61.8219 27.4241 62.8388 27.3745L62.8584 27.3735ZM78.5813 42.2391C78.3376 38.4375 76.1664 31.3353 70.9781 30.1032C66.3129 28.9952 63.9842 29.2592 63.1938 29.3488C63.0729 29.3625 62.988 29.3721 62.9362 29.3721C60.938 29.4696 56.5905 29.7523 55.1868 30.1032C53.4322 30.5418 48.0223 33.0275 47.4374 42.2391C47.2308 45.4927 46.8076 49.7871 46.3994 53.9299C45.8829 59.1702 45.3904 64.1682 45.3904 66.5108C45.3903 73.2104 52.0148 79.0229 62.6039 79.0229C72.1039 79.0229 82.032 74.8158 81.2132 66.5108C80.3944 58.2058 79.1174 46.8692 78.5813 42.2391Z" fill="#66592B"/>
<path d="M78.4817 70.0854C78.4817 73.6062 71.696 76.4604 63.3254 76.4604C54.9549 76.4604 48.1692 73.6062 48.1692 70.0854C48.1692 66.5646 54.9549 63.7104 63.3254 63.7104C71.696 63.7104 78.4817 66.5646 78.4817 70.0854Z" fill="#E3D99C"/>
<path fill-rule="evenodd" clip-rule="evenodd" d="M62.6086 29.3887C63.75 29.4981 65.1852 29.7209 66.958 30.1419C72.1422 31.3731 74.3117 38.4696 74.5552 42.2682C75.0909 46.8947 76.3668 58.2223 77.185 66.5208C77.9436 74.2148 69.471 78.3889 60.6671 78.9561C61.2968 79.0003 61.9426 79.0229 62.6039 79.0229C72.1039 79.0229 82.032 74.8158 81.2132 66.5108C80.3944 58.2058 79.1174 46.8692 78.5813 42.2391C78.3376 38.4375 76.1664 31.3353 70.9781 30.1032C66.3129 28.9952 63.9842 29.2592 63.1939 29.3488C63.0729 29.3625 62.988 29.3721 62.9363 29.3721C62.8331 29.3771 62.7236 29.3827 62.6086 29.3887Z" fill="#D0C791"/>
<path d="M79.2912 60.5335C79.3038 61.4136 78.6706 62.1363 77.8768 62.1477C77.0829 62.1591 76.4291 61.4549 76.4165 60.5748C76.4038 59.6947 77.0371 58.972 77.8309 58.9606C78.6247 58.9491 79.2785 59.6534 79.2912 60.5335Z" fill="#BAAE69"/>
<path d="M79.919 65.846C79.9316 66.7261 79.2984 67.4488 78.5046 67.4602C77.7107 67.4716 77.0569 66.7674 77.0443 65.8873C77.0316 65.0072 77.6649 64.2845 78.4587 64.2731C79.2525 64.2616 79.9063 64.9659 79.919 65.846Z" fill="#BAAE69"/>
<path d="M74.5851 65.2626C74.5978 66.1427 73.9645 66.8654 73.1707 66.8769C72.3769 66.8883 71.7231 66.1841 71.7104 65.3039C71.6978 64.4238 72.331 63.7011 73.1249 63.6897C73.9187 63.6783 74.5725 64.3825 74.5851 65.2626Z" fill="#BAAE69"/>
<path d="M69.2516 63.762C69.2643 64.6421 68.631 65.3648 67.8372 65.3762C67.0434 65.3877 66.3896 64.6834 66.3769 63.8033C66.3643 62.9232 66.9975 62.2005 67.7914 62.1891C68.5852 62.1777 69.239 62.8819 69.2516 63.762Z" fill="#BAAE69"/>
<path d="M71.1745 70.1669C71.1871 71.047 70.5539 71.7697 69.7601 71.7811C68.9662 71.7926 68.3124 71.0884 68.2998 70.2082C68.2871 69.3281 68.9204 68.6054 69.7142 68.594C70.508 68.5826 71.1618 69.2868 71.1745 70.1669Z" fill="#BAAE69"/>
<path d="M67.4063 75.109C67.419 75.9891 66.7857 76.7119 65.9919 76.7233C65.198 76.7347 64.5443 76.0305 64.5316 75.1504C64.5189 74.2703 65.1522 73.5475 65.946 73.5361C66.7398 73.5247 67.3936 74.2289 67.4063 75.109Z" fill="#BAAE69"/>
<path d="M62.2786 72.87C62.2871 73.4599 61.8626 73.9443 61.3305 73.952C60.7984 73.9596 60.3602 73.4876 60.3517 72.8977C60.3432 72.3077 60.7677 71.8233 61.2998 71.8156C61.8319 71.808 62.2701 72.28 62.2786 72.87Z" fill="#BAAE69"/>
<path d="M58.106 74.0338C58.1145 74.6237 57.69 75.1082 57.1579 75.1158C56.6258 75.1235 56.1875 74.6514 56.1791 74.0615C56.1706 73.4716 56.595 72.9871 57.1271 72.9795C57.6593 72.9718 58.0975 73.4438 58.106 74.0338Z" fill="#BAAE69"/>
<path d="M61.3305 69.1193C61.3389 69.7093 60.9145 70.1937 60.3824 70.2014C59.8503 70.209 59.412 69.737 59.4035 69.1471C59.3951 68.5571 59.8195 68.0727 60.3516 68.065C60.8837 68.0574 61.322 68.5294 61.3305 69.1193Z" fill="#BAAE69"/>
<path d="M71.7029 73.7443C71.7114 74.3343 71.2869 74.8187 70.7548 74.8264C70.2227 74.834 69.7845 74.362 69.776 73.7721C69.7675 73.1821 70.192 72.6977 70.7241 72.69C71.2562 72.6824 71.6944 73.1544 71.7029 73.7443Z" fill="#BAAE69"/>
<path d="M64.289 64.8508C64.2974 65.4407 63.873 65.9252 63.3409 65.9328C62.8088 65.9405 62.3705 65.4684 62.362 64.8785C62.3536 64.2886 62.778 63.8041 63.3101 63.7965C63.8422 63.7888 64.2805 64.2609 64.289 64.8508Z" fill="#BAAE69"/>
<path d="M68.5787 59.696C68.5855 60.1728 68.2425 60.5644 67.8124 60.5706C67.3823 60.5768 67.0281 60.1952 67.0212 59.7184C67.0143 59.2416 67.3574 58.85 67.7875 58.8438C68.2176 58.8376 68.5718 59.2192 68.5787 59.696Z" fill="#BAAE69"/>
<path d="M76.3812 57.2897C76.388 57.7666 76.0449 58.1581 75.6149 58.1643C75.1848 58.1705 74.8306 57.789 74.8237 57.3121C74.8168 56.8353 75.1599 56.4437 75.59 56.4376C76.0201 56.4314 76.3743 56.8129 76.3812 57.2897Z" fill="#BAAE69"/>
<path d="M78.6325 52.8835C78.6394 53.3603 78.2963 53.7519 77.8662 53.7581C77.4361 53.7643 77.0819 53.3827 77.075 52.9059C77.0682 52.4291 77.4113 52.0375 77.8414 52.0313C78.2714 52.0251 78.6257 52.4067 78.6325 52.8835Z" fill="#BAAE69"/>
<path d="M74.5957 55.5405C74.6025 56.0173 74.2594 56.4089 73.8293 56.4151C73.3992 56.4212 73.045 56.0397 73.0382 55.5629C73.0313 55.086 73.3744 54.6945 73.8045 54.6883C74.2346 54.6821 74.5888 55.0636 74.5957 55.5405Z" fill="#BAAE69"/>
<path d="M76.5913 63.0093C76.5981 63.4862 76.255 63.8777 75.8249 63.8839C75.3949 63.8901 75.0406 63.5086 75.0338 63.0317C75.0269 62.5549 75.37 62.1634 75.8001 62.1572C76.2302 62.151 76.5844 62.5325 76.5913 63.0093Z" fill="#BAAE69"/>
<path d="M71.3305 66.2603C71.3374 66.7372 70.9943 67.1287 70.5642 67.1349C70.1341 67.1411 69.7799 66.7596 69.773 66.2827C69.7662 65.8059 70.1093 65.4143 70.5394 65.4081C70.9694 65.402 71.3237 65.7835 71.3305 66.2603Z" fill="#BAAE69"/>
<path d="M77.2844 70.6735C77.3024 71.9299 76.3984 72.9616 75.2652 72.9779C74.1319 72.9942 73.1986 71.9889 73.1806 70.7325C73.1625 69.4761 74.0665 68.4443 75.1997 68.428C76.333 68.4117 77.2663 69.417 77.2844 70.6735Z" fill="#BAAE69"/>
<path d="M67.3966 69.4265C67.4146 70.6829 66.5106 71.7147 65.3774 71.731C64.2441 71.7473 63.3108 70.742 63.2927 69.4855C63.2747 68.2291 64.1787 67.1974 65.3119 67.1811C66.4452 67.1648 67.3785 68.1701 67.3966 69.4265Z" fill="#BAAE69"/>
<path d="M74.1997 60.1731C74.2177 61.4295 73.3137 62.4613 72.1805 62.4776C71.0472 62.4939 70.1139 61.4885 70.0958 60.2321C70.0778 58.9757 70.9818 57.944 72.115 57.9277C73.2483 57.9114 74.1816 58.9167 74.1997 60.1731Z" fill="#BAAE69"/>
<path fill-rule="evenodd" clip-rule="evenodd" d="M52.1997 38.0948C52.6432 38.4239 52.736 39.0502 52.407 39.4938C52.0825 39.931 51.0672 42.0391 50.7252 46.0455C50.3757 50.1397 50.0803 54.118 49.9764 55.5932C49.9376 56.1441 49.4595 56.5592 48.9086 56.5205C48.3577 56.4817 47.9425 56.0036 47.9813 55.4527C48.0858 53.9695 48.382 49.9812 48.7325 45.8754C49.0905 41.6818 50.1668 39.1565 50.8008 38.3021C51.1298 37.8585 51.7562 37.7657 52.1997 38.0948Z" fill="white"/>
<path fill-rule="evenodd" clip-rule="evenodd" d="M71.084 41.2552C70.2579 41.3179 69.639 42.0383 69.7016 42.8643L71.6024 67.9403C71.665 68.7663 72.3855 69.3852 73.2115 69.3226C74.0376 69.26 74.6565 68.5396 74.5938 67.7135L72.693 42.6376C72.6304 41.8115 71.91 41.1926 71.084 41.2552Z" fill="#C0B576"/>
<path fill-rule="evenodd" clip-rule="evenodd" d="M54.496 41.2552C55.3221 41.3179 55.9409 42.0383 55.8783 42.8643L53.9775 67.9403C53.9149 68.7663 53.1945 69.3852 52.3684 69.3226C51.5424 69.26 50.9235 68.5396 50.9861 67.7135L52.8869 42.6376C52.9495 41.8115 53.6699 41.1926 54.496 41.2552Z" fill="#D0C791"/>
<path fill-rule="evenodd" clip-rule="evenodd" d="M62.6438 42.713C63.4722 42.713 64.1438 43.3846 64.1438 44.213V71.7015C64.1438 72.5299 63.4722 73.2015 62.6438 73.2015C61.8154 73.2015 61.1438 72.5299 61.1438 71.7015V44.213C61.1438 43.3846 61.8154 42.713 62.6438 42.713Z" fill="#AEA467"/>
<path d="M62.6203 36.4036C68.4345 36.4036 73.1478 34.5772 73.1478 32.3242V21.3571H52.0928V32.3242C52.0928 34.5772 56.8061 36.4036 62.6203 36.4036Z" fill="#C8BC78"/>
<path fill-rule="evenodd" clip-rule="evenodd" d="M50.0928 21.3571C50.0928 20.2526 50.9882 19.3571 52.0928 19.3571H73.1478C74.2524 19.3571 75.1478 20.2526 75.1478 21.3571V32.3242C75.1478 33.6389 74.4523 34.6714 73.6715 35.3867C72.8921 36.1008 71.8749 36.652 70.787 37.0736C68.5982 37.9218 65.7102 38.4036 62.6203 38.4036C59.5304 38.4036 56.6424 37.9218 54.4536 37.0736C53.3656 36.652 52.3485 36.1008 51.569 35.3867C50.7882 34.6714 50.0928 33.6389 50.0928 32.3242V21.3571ZM73.1478 32.3242C73.1478 34.5772 68.4345 36.4036 62.6203 36.4036C56.8061 36.4036 52.0928 34.5772 52.0928 32.3242V21.3571H73.1478V32.3242Z" fill="#66592B"/>
<path d="M73.1478 32.3242V21.3571H68.3226L68.509 35.7062C71.3078 34.973 73.1478 33.7318 73.1478 32.3242Z" fill="#AA9C4E"/>
<path d="M73.1478 21.5216C73.1478 23.7746 68.4345 25.601 62.6203 25.601C56.8061 25.601 52.0928 23.7746 52.0928 21.5216C52.0928 19.2686 56.8061 17.4422 62.6203 17.4422C68.4345 17.4422 73.1478 19.2686 73.1478 21.5216Z" fill="#D6CD9F"/>
<path fill-rule="evenodd" clip-rule="evenodd" d="M70.787 26.2711C68.5982 27.1193 65.7102 27.601 62.6203 27.601C59.5304 27.601 56.6424 27.1193 54.4536 26.2711C53.3656 25.8495 52.3485 25.2983 51.569 24.5842C50.7882 23.8689 50.0928 22.8364 50.0928 21.5216C50.0928 20.2069 50.7882 19.1744 51.569 18.4591C52.3485 17.745 53.3656 17.1938 54.4536 16.7722C56.6424 15.924 59.5304 15.4422 62.6203 15.4422C65.7102 15.4422 68.5982 15.924 70.787 16.7722C71.8749 17.1938 72.8921 17.745 73.6715 18.4591C74.4523 19.1744 75.1478 20.2069 75.1478 21.5216C75.1478 22.8364 74.4523 23.8689 73.6715 24.5842C72.8921 25.2983 71.8749 25.8495 70.787 26.2711ZM62.6203 25.601C68.4345 25.601 73.1478 23.7746 73.1478 21.5216C73.1478 19.2686 68.4345 17.4422 62.6203 17.4422C56.8061 17.4422 52.0928 19.2686 52.0928 21.5216C52.0928 23.7746 56.8061 25.601 62.6203 25.601Z" fill="#66592B"/>
<path d="M65.3906 21.5217C65.3906 22.903 62.5009 24.0227 58.9362 24.0227C55.3715 24.0227 52.4818 22.903 52.4818 21.5217C52.4818 20.1403 55.3715 19.0206 58.9362 19.0206C62.5009 19.0206 65.3906 20.1403 65.3906 21.5217Z" fill="#FFFBE2"/>
<path d="M65.3906 21.3571C65.3906 22.125 64.2702 22.7474 62.8881 22.7474C61.506 22.7474 60.3856 22.125 60.3856 21.3571C60.3856 20.5893 61.506 19.9669 62.8881 19.9669C64.2702 19.9669 65.3906 20.5893 65.3906 21.3571Z" fill="#66592B"/>
<path fill-rule="evenodd" clip-rule="evenodd" d="M54.8539 27.8979C55.4062 27.8979 55.8539 28.3456 55.8539 28.8979V32.8354C55.8539 33.3877 55.4062 33.8354 54.8539 33.8354C54.3016 33.8354 53.8539 33.3877 53.8539 32.8354V28.8979C53.8539 28.3456 54.3016 27.8979 54.8539 27.8979Z" fill="#F0E5A8"/>
<path d="M24.5358 38.4231C25.9395 38.0722 30.287 37.7895 32.2852 37.692C32.6752 37.692 34.948 37.1456 40.3271 38.4231C45.5154 39.6553 47.6866 46.7574 47.9303 50.559C48.4664 55.1892 49.7434 66.5257 50.5622 74.8308C51.381 83.1358 41.4529 87.3429 31.9529 87.3429C21.3638 87.3429 14.7393 81.5304 14.7394 74.8308C14.7394 70.6361 16.3185 57.9283 16.7864 50.559C17.3713 41.3474 22.7812 38.8618 24.5358 38.4231Z" fill="#DBF3FE"/>
<path fill-rule="evenodd" clip-rule="evenodd" d="M32.2074 35.6935C32.2227 35.6919 32.2513 35.6889 32.2972 35.6837L32.3193 35.6812C32.4266 35.6691 32.5829 35.6513 32.7729 35.6345C33.1863 35.5977 33.7466 35.5659 34.471 35.5788C35.918 35.6048 37.9742 35.8087 40.7892 36.4772C44.2041 37.2882 46.4213 39.9749 47.766 42.6216C49.1132 45.2733 49.778 48.2415 49.9227 50.3781C50.4625 55.0423 51.7349 66.3417 52.5525 74.6345C53.0622 79.8044 50.1419 83.5811 46.1381 85.9268C42.1832 88.2439 36.9507 89.3429 31.9529 89.3429C20.78 89.3429 12.7393 83.0921 12.7394 74.8307C12.7394 72.61 13.1488 68.2608 13.597 63.6902C13.6501 63.1483 13.704 62.6019 13.758 62.0537C14.1669 57.9035 14.5862 53.6482 14.7904 50.4323C15.1085 45.4232 16.7599 42.0588 18.7359 39.8633C20.6829 37.6999 22.8423 36.785 24.0507 36.4828C24.9392 36.2607 26.5473 36.093 28.0205 35.9695C29.5607 35.8404 31.1709 35.744 32.1878 35.6944L32.2074 35.6935ZM47.9303 50.559C47.6866 46.7574 45.5154 39.6553 40.3271 38.4231C35.6619 37.3152 33.3332 37.5791 32.5428 37.6687C32.4219 37.6824 32.337 37.692 32.2852 37.692C30.287 37.7895 25.9395 38.0722 24.5358 38.4231C22.7812 38.8618 17.3713 41.3474 16.7864 50.559C16.5798 53.8127 16.1566 58.107 15.7484 62.2499C15.2319 67.4902 14.7394 72.4881 14.7394 74.8308C14.7393 81.5304 21.3638 87.3429 31.9529 87.3429C41.4529 87.3429 51.381 83.1358 50.5622 74.8308C49.7434 66.5257 48.4664 55.1892 47.9303 50.559Z" fill="#2B4666"/>
<path d="M47.8307 78.4054C47.8307 81.9262 41.045 84.7804 32.6744 84.7804C24.3039 84.7804 17.5182 81.9262 17.5182 78.4054C17.5182 74.8845 24.3039 72.0304 32.6744 72.0304C41.045 72.0304 47.8307 74.8845 47.8307 78.4054Z" fill="#C3E8F9"/>
<path fill-rule="evenodd" clip-rule="evenodd" d="M31.9576 37.7086C33.099 37.8181 34.5342 38.0408 36.307 38.4619C41.4912 39.693 43.6607 46.7896 43.9042 50.5882C44.4399 55.2146 45.7158 66.5422 46.534 74.8407C47.2926 82.5348 38.82 86.7088 30.0161 87.2761C30.6458 87.3202 31.2916 87.3429 31.9529 87.3429C41.4529 87.3429 51.381 83.1358 50.5622 74.8308C49.7434 66.5257 48.4664 55.1892 47.9303 50.559C47.6866 46.7574 45.5154 39.6553 40.3271 38.4231C35.6619 37.3152 33.3332 37.5791 32.5429 37.6687C32.4219 37.6824 32.337 37.692 32.2853 37.692C32.1821 37.6971 32.0726 37.7026 31.9576 37.7086Z" fill="#AEDBEE"/>
<path d="M48.6402 68.8534C48.6528 69.7335 48.0196 70.4563 47.2258 70.4677C46.4319 70.4791 45.7781 69.7749 45.7655 68.8948C45.7528 68.0147 46.3861 67.2919 47.1799 67.2805C47.9737 67.2691 48.6275 67.9733 48.6402 68.8534Z" fill="white"/>
<path d="M49.268 74.1659C49.2806 75.046 48.6474 75.7688 47.8536 75.7802C47.0597 75.7916 46.4059 75.0874 46.3933 74.2073C46.3806 73.3272 47.0139 72.6044 47.8077 72.593C48.6015 72.5816 49.2553 73.2858 49.268 74.1659Z" fill="white"/>
<path d="M43.9341 73.5825C43.9468 74.4626 43.3135 75.1854 42.5197 75.1968C41.7259 75.2082 41.0721 74.504 41.0594 73.6239C41.0468 72.7438 41.68 72.021 42.4739 72.0096C43.2677 71.9982 43.9215 72.7024 43.9341 73.5825Z" fill="white"/>
<path d="M38.6006 72.0819C38.6133 72.962 37.98 73.6848 37.1862 73.6962C36.3924 73.7076 35.7386 73.0034 35.7259 72.1233C35.7133 71.2432 36.3465 70.5204 37.1404 70.509C37.9342 70.4976 38.588 71.2018 38.6006 72.0819Z" fill="white"/>
<path d="M40.5235 78.4868C40.5361 79.3669 39.9029 80.0897 39.1091 80.1011C38.3152 80.1125 37.6614 79.4083 37.6488 78.5282C37.6361 77.6481 38.2694 76.9253 39.0632 76.9139C39.857 76.9025 40.5108 77.6067 40.5235 78.4868Z" fill="white"/>
<path d="M36.7553 83.429C36.768 84.3091 36.1347 85.0318 35.3409 85.0432C34.547 85.0547 33.8933 84.3504 33.8806 83.4703C33.8679 82.5902 34.5012 81.8675 35.295 81.8561C36.0888 81.8446 36.7426 82.5489 36.7553 83.429Z" fill="white"/>
<path d="M31.6276 81.1899C31.6361 81.7798 31.2116 82.2643 30.6795 82.2719C30.1474 82.2796 29.7092 81.8076 29.7007 81.2176C29.6922 80.6277 30.1167 80.1432 30.6488 80.1356C31.1809 80.1279 31.6191 80.6 31.6276 81.1899Z" fill="white"/>
<path d="M27.455 82.3537C27.4635 82.9437 27.039 83.4281 26.5069 83.4358C25.9748 83.4434 25.5365 82.9714 25.5281 82.3814C25.5196 81.7915 25.944 81.3071 26.4761 81.2994C27.0082 81.2917 27.4465 81.7638 27.455 82.3537Z" fill="white"/>
<path d="M30.6795 77.4393C30.6879 78.0292 30.2635 78.5137 29.7314 78.5213C29.1993 78.529 28.761 78.0569 28.7525 77.467C28.7441 76.8771 29.1685 76.3926 29.7006 76.385C30.2327 76.3773 30.671 76.8494 30.6795 77.4393Z" fill="white"/>
<path d="M41.0519 82.0643C41.0604 82.6542 40.6359 83.1387 40.1038 83.1463C39.5717 83.154 39.1335 82.6819 39.125 82.092C39.1165 81.5021 39.541 81.0176 40.0731 81.01C40.6052 81.0023 41.0434 81.4744 41.0519 82.0643Z" fill="white"/>
<path d="M33.638 73.1707C33.6464 73.7607 33.222 74.2451 32.6899 74.2528C32.1578 74.2604 31.7195 73.7884 31.711 73.1985C31.7026 72.6085 32.127 72.1241 32.6591 72.1164C33.1912 72.1088 33.6295 72.5808 33.638 73.1707Z" fill="white"/>
<path d="M37.9277 68.0159C37.9345 68.4928 37.5915 68.8843 37.1614 68.8905C36.7313 68.8967 36.3771 68.5152 36.3702 68.0383C36.3633 67.5615 36.7064 67.1699 37.1365 67.1638C37.5666 67.1576 37.9208 67.5391 37.9277 68.0159Z" fill="white"/>
<path d="M45.7302 65.6097C45.737 66.0865 45.3939 66.4781 44.9639 66.4843C44.5338 66.4905 44.1796 66.1089 44.1727 65.6321C44.1658 65.1553 44.5089 64.7637 44.939 64.7575C45.3691 64.7513 45.7233 65.1329 45.7302 65.6097Z" fill="white"/>
<path d="M47.9815 61.2034C47.9884 61.6803 47.6453 62.0718 47.2152 62.078C46.7851 62.0842 46.4309 61.7027 46.424 61.2258C46.4172 60.749 46.7603 60.3574 47.1904 60.3513C47.6204 60.3451 47.9747 60.7266 47.9815 61.2034Z" fill="white"/>
<path d="M43.9447 63.8604C43.9515 64.3373 43.6084 64.7288 43.1783 64.735C42.7482 64.7412 42.394 64.3597 42.3872 63.8828C42.3803 63.406 42.7234 63.0144 43.1535 63.0082C43.5836 63.0021 43.9378 63.3836 43.9447 63.8604Z" fill="white"/>
<path d="M45.9403 71.3293C45.9471 71.8061 45.604 72.1977 45.1739 72.2039C44.7439 72.2101 44.3896 71.8285 44.3828 71.3517C44.3759 70.8749 44.719 70.4833 45.1491 70.4771C45.5792 70.4709 45.9334 70.8525 45.9403 71.3293Z" fill="white"/>
<path d="M40.6795 74.5803C40.6864 75.0571 40.3433 75.4487 39.9132 75.4549C39.4831 75.461 39.1289 75.0795 39.122 74.6027C39.1152 74.1258 39.4583 73.7343 39.8884 73.7281C40.3184 73.7219 40.6727 74.1034 40.6795 74.5803Z" fill="white"/>
<path d="M46.6334 78.9934C46.6514 80.2498 45.7474 81.2816 44.6142 81.2979C43.4809 81.3142 42.5476 80.3089 42.5296 79.0524C42.5115 77.796 43.4155 76.7643 44.5487 76.748C45.682 76.7317 46.6153 77.737 46.6334 78.9934Z" fill="white"/>
<path d="M36.7456 77.7465C36.7636 79.0029 35.8596 80.0346 34.7264 80.0509C33.5931 80.0672 32.6598 79.0619 32.6417 77.8055C32.6237 76.5491 33.5277 75.5173 34.6609 75.501C35.7942 75.4847 36.7275 76.49 36.7456 77.7465Z" fill="white"/>
<path d="M43.5487 68.493C43.5667 69.7495 42.6627 70.7812 41.5295 70.7975C40.3962 70.8138 39.4629 69.8085 39.4448 68.5521C39.4268 67.2957 40.3308 66.2639 41.464 66.2476C42.5973 66.2313 43.5306 67.2366 43.5487 68.493Z" fill="white"/>
<path fill-rule="evenodd" clip-rule="evenodd" d="M21.5487 46.4148C21.9922 46.7438 22.085 47.3702 21.756 47.8137C21.4315 48.251 20.4162 50.359 20.0742 54.3654C19.7247 58.4596 19.4293 62.4379 19.3254 63.9131C19.2866 64.464 18.8085 64.8792 18.2576 64.8404C17.7067 64.8016 17.2915 64.3235 17.3303 63.7726C17.4348 62.2895 17.731 58.3011 18.0815 54.1953C18.4395 50.0017 19.5158 47.4764 20.1498 46.622C20.4788 46.1785 21.1052 46.0857 21.5487 46.4148Z" fill="white"/>
<path fill-rule="evenodd" clip-rule="evenodd" d="M40.433 49.5752C39.6069 49.6378 38.988 50.3582 39.0506 51.1843L40.9514 76.2602C41.014 77.0863 41.7345 77.7052 42.5605 77.6426C43.3866 77.5799 44.0055 76.8595 43.9428 76.0335L42.042 50.9575C41.9794 50.1315 41.259 49.5126 40.433 49.5752Z" fill="#89C3D6"/>
<path fill-rule="evenodd" clip-rule="evenodd" d="M23.845 49.5752C24.6711 49.6378 25.2899 50.3582 25.2273 51.1843L23.3265 76.2602C23.2639 77.0863 22.5435 77.7052 21.7174 77.6426C20.8914 77.5799 20.2725 76.8595 20.3351 76.0335L22.2359 50.9575C22.2985 50.1315 23.0189 49.5126 23.845 49.5752Z" fill="#9ED0E0"/>
<path fill-rule="evenodd" clip-rule="evenodd" d="M31.9928 51.0329C32.8212 51.0329 33.4928 51.7045 33.4928 52.5329V80.0214C33.4928 80.8499 32.8212 81.5214 31.9928 81.5214C31.1644 81.5214 30.4928 80.8499 30.4928 80.0214V52.5329C30.4928 51.7045 31.1644 51.0329 31.9928 51.0329Z" fill="#7EB8CB"/>
<path d="M31.9693 44.7235C37.7835 44.7235 42.4968 42.8971 42.4968 40.6441V29.6771H21.4418V40.6441C21.4418 42.8971 26.1551 44.7235 31.9693 44.7235Z" fill="#84BCEE"/>
<path fill-rule="evenodd" clip-rule="evenodd" d="M19.4418 29.6771C19.4418 28.5725 20.3372 27.6771 21.4418 27.6771H42.4968C43.6014 27.6771 44.4968 28.5725 44.4968 29.6771V40.6441C44.4968 41.9589 43.8013 42.9913 43.0205 43.7067C42.2411 44.4208 41.2239 44.972 40.136 45.3936C37.9472 46.2417 35.0592 46.7235 31.9693 46.7235C28.8794 46.7235 25.9914 46.2417 23.8026 45.3936C22.7146 44.972 21.6975 44.4208 20.918 43.7067C20.1372 42.9913 19.4418 41.9589 19.4418 40.6441V29.6771ZM42.4968 40.6441C42.4968 42.8971 37.7835 44.7235 31.9693 44.7235C26.1551 44.7235 21.4418 42.8971 21.4418 40.6441V29.6771H42.4968V40.6441Z" fill="#2B4666"/>
<path d="M42.4968 40.6441V29.6771H37.6716L37.858 44.0261C40.6568 43.2929 42.4968 42.0518 42.4968 40.6441Z" fill="#629BCE"/>
<path d="M42.4968 29.8416C42.4968 32.0946 37.7835 33.921 31.9693 33.921C26.1551 33.921 21.4418 32.0946 21.4418 29.8416C21.4418 27.5886 26.1551 25.7622 31.9693 25.7622C37.7835 25.7622 42.4968 27.5886 42.4968 29.8416Z" fill="#AACFF1"/>
<path fill-rule="evenodd" clip-rule="evenodd" d="M40.136 34.591C37.9472 35.4392 35.0592 35.921 31.9693 35.921C28.8794 35.921 25.9914 35.4392 23.8026 34.591C22.7146 34.1695 21.6975 33.6183 20.918 32.9042C20.1372 32.1888 19.4418 31.1564 19.4418 29.8416C19.4418 28.5268 20.1372 27.4943 20.918 26.779C21.6975 26.0649 22.7146 25.5137 23.8026 25.0921C25.9914 24.244 28.8794 23.7622 31.9693 23.7622C35.0592 23.7622 37.9472 24.244 40.136 25.0921C41.2239 25.5137 42.2411 26.0649 43.0205 26.779C43.8013 27.4943 44.4968 28.5268 44.4968 29.8416C44.4968 31.1564 43.8013 32.1888 43.0205 32.9042C42.2411 33.6183 41.2239 34.1695 40.136 34.591ZM31.9693 33.921C37.7835 33.921 42.4968 32.0946 42.4968 29.8416C42.4968 27.5886 37.7835 25.7622 31.9693 25.7622C26.1551 25.7622 21.4418 27.5886 21.4418 29.8416C21.4418 32.0946 26.1551 33.921 31.9693 33.921Z" fill="#2B4666"/>
<path d="M34.7396 29.8416C34.7396 31.2229 31.8499 32.3427 28.2852 32.3427C24.7205 32.3427 21.8308 31.2229 21.8308 29.8416C21.8308 28.4603 24.7205 27.3405 28.2852 27.3405C31.8499 27.3405 34.7396 28.4603 34.7396 29.8416Z" fill="#ECF6FF"/>
<path d="M28.1404 29.6771C28.1404 30.1949 27.3849 30.6146 26.4529 30.6146C25.5209 30.6146 24.7654 30.1949 24.7654 29.6771C24.7654 29.1593 25.5209 28.7396 26.4529 28.7396C27.3849 28.7396 28.1404 29.1593 28.1404 29.6771Z" fill="#2B4666"/>
<path d="M33.6567 27.9583C33.6567 28.4761 32.9012 28.8958 31.9692 28.8958C31.0373 28.8958 30.2817 28.4761 30.2817 27.9583C30.2817 27.4406 31.0373 27.0208 31.9692 27.0208C32.9012 27.0208 33.6567 27.4406 33.6567 27.9583Z" fill="#2B4666"/>
<path d="M39.1727 29.3646C39.1727 29.8824 38.4172 30.3021 37.4852 30.3021C36.5532 30.3021 35.7977 29.8824 35.7977 29.3646C35.7977 28.8468 36.5532 28.4271 37.4852 28.4271C38.4172 28.4271 39.1727 28.8468 39.1727 29.3646Z" fill="#2B4666"/>
<path d="M33.6565 31.0521C33.6565 31.5699 32.901 31.9896 31.969 31.9896C31.037 31.9896 30.2815 31.5699 30.2815 31.0521C30.2815 30.5343 31.037 30.1146 31.969 30.1146C32.901 30.1146 33.6565 30.5343 33.6565 31.0521Z" fill="#2B4666"/>
<path fill-rule="evenodd" clip-rule="evenodd" d="M24.2029 36.2179C24.7552 36.2179 25.2029 36.6656 25.2029 37.2179V41.1554C25.2029 41.7076 24.7552 42.1554 24.2029 42.1554C23.6506 42.1554 23.2029 41.7076 23.2029 41.1554V37.2179C23.2029 36.6656 23.6506 36.2179 24.2029 36.2179Z" fill="#B6DDFF"/>
</svg>
