<svg width="96" height="97" viewBox="0 0 96 97" fill="none" xmlns="http://www.w3.org/2000/svg">
<path d="M21 35.7911C21 35.7911 26.4286 41.7423 48.1429 41.7423C69.8571 41.7423 75.2857 35.7911 75.2857 35.7911L67.233 77.9692C67.1731 78.2829 67.0769 78.5888 66.8909 78.8484C65.9296 80.1907 61.8275 84.3927 48.1429 84.3927C34.4582 84.3927 30.3561 80.1907 29.3948 78.8484C29.2088 78.5888 29.1126 78.2829 29.0527 77.9692L21 35.7911Z" fill="#F47A53"/>
<path fill-rule="evenodd" clip-rule="evenodd" d="M20.1048 34.0026C20.8943 33.6074 21.8479 33.7771 22.4526 34.4163C22.4538 34.4174 22.4551 34.4188 22.4568 34.4204C22.4718 34.4349 22.5097 34.4707 22.5733 34.5249C22.7004 34.6332 22.9309 34.816 23.2866 35.05C23.9974 35.5175 25.2147 36.1937 27.115 36.8882C30.9189 38.2782 37.4632 39.7423 48.1429 39.7423C58.8225 39.7423 65.3668 38.2782 69.1707 36.8882C71.071 36.1937 72.2884 35.5175 72.9992 35.05C73.3549 34.816 73.5854 34.6332 73.7124 34.5249C73.776 34.4707 73.814 34.4349 73.829 34.4204C73.8306 34.4188 73.832 34.4174 73.8331 34.4163C74.4379 33.7771 75.3915 33.6074 76.1809 34.0026C76.9814 34.4032 77.4181 35.2869 77.2503 36.1661L69.1976 78.3443C69.1123 78.7908 68.9429 79.4181 68.5169 80.0129C67.0641 82.0416 62.2435 86.3927 48.1429 86.3927C34.0423 86.3927 29.2217 82.0416 27.7688 80.0129C27.3428 79.4181 27.1734 78.7908 27.0882 78.3443L19.0355 36.1661C18.8676 35.2869 19.3044 34.4032 20.1048 34.0026ZM72.9413 37.406C74.6495 36.4886 75.2857 35.7911 75.2857 35.7911L67.233 77.9692C67.1732 78.2829 67.0769 78.5887 66.8909 78.8484C65.9296 80.1907 61.8275 84.3927 48.1429 84.3927C34.4583 84.3927 30.3561 80.1907 29.3948 78.8484C29.2089 78.5887 29.1126 78.2829 29.0527 77.9692L21 35.7911C21 35.7911 21.6363 36.4886 23.3445 37.406C26.6258 39.1684 33.8626 41.7423 48.1429 41.7423C62.4232 41.7423 69.6599 39.1684 72.9413 37.406Z" fill="#C1461E"/>
<path d="M44.0322 84.2542C45.2958 84.3435 46.6633 84.3926 48.1428 84.3926C49.6224 84.3926 50.9899 84.3435 52.2535 84.2542L54.6625 41.5464C52.6725 41.6718 50.504 41.7422 48.1428 41.7422C45.7817 41.7422 43.6131 41.6718 41.6232 41.5464L44.0322 84.2542Z" fill="#FFE4C4"/>
<path d="M67.2331 77.9691L75.2857 35.791C75.2857 35.791 72.3043 39.0595 61.9223 40.752L59.1802 83.1741C64.2917 81.8253 66.2623 79.7261 66.8908 78.8486C67.0768 78.5889 67.1732 78.2829 67.2331 77.9691Z" fill="#E25F35"/>
<path d="M29.0469 77.977L20.9942 35.7988C20.9942 35.7988 22.6258 37.5875 27.6779 39.2036L33.5435 81.9333C31.0022 80.7664 29.8446 79.4921 29.3895 78.8569C29.2035 78.5973 29.1068 78.2907 29.0469 77.977Z" fill="#FFAA8F"/>
<path d="M67.2331 77.9691L75.2858 35.791C75.2858 35.791 73.6542 37.5797 68.6021 39.1958L62.7365 81.9255C65.2777 80.7586 66.4354 79.4843 66.8905 78.8491C67.0765 78.5895 67.1732 78.2829 67.2331 77.9691Z" fill="#EE8E59"/>
<path fill-rule="evenodd" clip-rule="evenodd" d="M32.0265 46.0617C32.5806 46.0359 33.0879 46.4569 33.1596 47.002L35.0658 61.5021C35.1375 62.0472 34.7463 62.5101 34.1922 62.536C33.6381 62.5618 33.1308 62.1408 33.0591 61.5957L31.1529 47.0956C31.0813 46.5505 31.4724 46.0876 32.0265 46.0617Z" fill="#FFE6DF"/>
<path d="M60.8683 79.751C60.8683 80.7553 59.9808 81.5695 58.8861 81.5695C57.7914 81.5695 56.904 80.7553 56.904 79.751C56.904 78.7468 57.7914 77.9326 58.8861 77.9326C59.9808 77.9326 60.8683 78.7468 60.8683 79.751Z" fill="#C04923"/>
<path d="M65.75 77.4022C65.75 78.1554 65.0844 78.766 64.2634 78.766C63.4424 78.766 62.7768 78.1554 62.7768 77.4022C62.7768 76.6489 63.4424 76.0383 64.2634 76.0383C65.0844 76.0383 65.75 76.6489 65.75 77.4022Z" fill="#C04923"/>
<path d="M61.721 74.7505C61.721 75.5038 61.0554 76.1144 60.2344 76.1144C59.4134 76.1144 58.7478 75.5038 58.7478 74.7505C58.7478 73.9973 59.4134 73.3867 60.2344 73.3867C61.0554 73.3867 61.721 73.9973 61.721 74.7505Z" fill="#C04923"/>
<path d="M67.6674 68.3858C67.6674 69.139 67.0018 69.7496 66.1808 69.7496C65.3597 69.7496 64.6942 69.139 64.6942 68.3858C64.6942 67.6326 65.3597 67.022 66.1808 67.022C67.0018 67.022 67.6674 67.6326 67.6674 68.3858Z" fill="#C04923"/>
<path d="M63.7031 69.7498C63.7031 70.2519 63.2594 70.659 62.7121 70.659C62.1647 70.659 61.721 70.2519 61.721 69.7498C61.721 69.2476 62.1647 68.8406 62.7121 68.8406C63.2594 68.8406 63.7031 69.2476 63.7031 69.7498Z" fill="#C04923"/>
<path d="M67.6674 64.2945C67.6674 64.7966 67.2237 65.2037 66.6763 65.2037C66.129 65.2037 65.6852 64.7966 65.6852 64.2945C65.6852 63.7923 66.129 63.3853 66.6763 63.3853C67.2237 63.3853 67.6674 63.7923 67.6674 64.2945Z" fill="#C04923"/>
<path d="M66.5937 72.8563C66.5937 73.6095 65.9281 74.2201 65.1071 74.2201C64.2861 74.2201 63.6205 73.6095 63.6205 72.8563C63.6205 72.103 64.2861 71.4924 65.1071 71.4924C65.9281 71.4924 66.5937 72.103 66.5937 72.8563Z" fill="#C04923"/>
<path d="M64.6942 64.7491C64.6942 65.5023 64.0286 66.1129 63.2076 66.1129C62.3866 66.1129 61.721 65.5023 61.721 64.7491C61.721 63.9959 62.3866 63.3853 63.2076 63.3853C64.0286 63.3853 64.6942 63.9959 64.6942 64.7491Z" fill="#C04923"/>
<path d="M66.6763 60.6575C66.6763 61.1597 66.2326 61.5667 65.6852 61.5667C65.1379 61.5667 64.6942 61.1597 64.6942 60.6575C64.6942 60.1554 65.1379 59.7483 65.6852 59.7483C66.2326 59.7483 66.6763 60.1554 66.6763 60.6575Z" fill="#C04923"/>
<path d="M54.8393 80.5845C54.8393 81.0867 54.3956 81.4937 53.8482 81.4937C53.3009 81.4937 52.8572 81.0867 52.8572 80.5845C52.8572 80.0824 53.3009 79.6753 53.8482 79.6753C54.3956 79.6753 54.8393 80.0824 54.8393 80.5845Z" fill="#C04923"/>
<path d="M75.2857 35.7909C75.2857 40.1733 63.1334 43.7259 48.1429 43.7259C33.1523 43.7259 21 40.1733 21 35.7909C21 31.4086 33.1523 27.856 48.1429 27.856C63.1334 27.856 75.2857 31.4086 75.2857 35.7909Z" fill="#952C0A"/>
<path fill-rule="evenodd" clip-rule="evenodd" d="M67.8969 43.3214C62.7565 44.8242 55.7729 45.7259 48.1429 45.7259C40.5128 45.7259 33.5292 44.8242 28.3888 43.3214C25.8317 42.5739 23.6169 41.6452 21.9959 40.5248C20.4359 39.4466 19 37.8801 19 35.7909C19 33.7018 20.4359 32.1352 21.9959 31.057C23.6169 29.9366 25.8317 29.0079 28.3888 28.2604C33.5292 26.7576 40.5128 25.856 48.1429 25.856C55.7729 25.856 62.7565 26.7576 67.8969 28.2604C70.454 29.0079 72.6689 29.9366 74.2899 31.057C75.8498 32.1352 77.2857 33.7018 77.2857 35.7909C77.2857 37.8801 75.8498 39.4466 74.2899 40.5248C72.6689 41.6452 70.454 42.5739 67.8969 43.3214ZM48.1429 43.7259C63.1334 43.7259 75.2857 40.1733 75.2857 35.7909C75.2857 31.4086 63.1334 27.856 48.1429 27.856C33.1523 27.856 21 31.4086 21 35.7909C21 40.1733 33.1523 43.7259 48.1429 43.7259Z" fill="#C1461E"/>
<path d="M75.2857 34.7909C75.2857 39.1732 63.1334 42.7258 48.1429 42.7258C33.1523 42.7258 21 39.1732 21 34.7909C21 30.4085 33.1523 26.8559 48.1429 26.8559C63.1334 26.8559 75.2857 30.4085 75.2857 34.7909Z" fill="#E09C35"/>
<path d="M43.6875 26.1425C43.6875 29.5253 40.9452 32.2675 37.5625 32.2675C34.1798 32.2675 31.4375 29.5253 31.4375 26.1425C31.4375 22.7598 34.1798 20.0175 37.5625 20.0175C40.9452 20.0175 43.6875 22.7598 43.6875 26.1425Z" fill="#FFF8BB"/>
<path d="M28.8839 35.9757C28.8839 37.0852 27.9845 37.9846 26.875 37.9846C25.7655 37.9846 24.8661 37.0852 24.8661 35.9757C24.8661 34.8662 25.7655 33.9668 26.875 33.9668C27.9845 33.9668 28.8839 34.8662 28.8839 35.9757Z" fill="#FFF8BB"/>
<path d="M46.1875 39.7569C46.1875 40.8664 45.2881 41.7658 44.1786 41.7658C43.0691 41.7658 42.1697 40.8664 42.1697 39.7569C42.1697 38.6474 43.0691 37.748 44.1786 37.748C45.2881 37.748 46.1875 38.6474 46.1875 39.7569Z" fill="#FFF8BB"/>
<path d="M69.0916 37.1971C69.0916 38.3066 68.1922 39.206 67.0827 39.206C65.9732 39.206 65.0738 38.3066 65.0738 37.1971C65.0738 36.0876 65.9732 35.1882 67.0827 35.1882C68.1922 35.1882 69.0916 36.0876 69.0916 37.1971Z" fill="#FFF8BB"/>
<path d="M53.2732 39.7569C53.2732 40.8664 52.3738 41.7658 51.2643 41.7658C50.1548 41.7658 49.2554 40.8664 49.2554 39.7569C49.2554 38.6474 50.1548 37.748 51.2643 37.748C52.3738 37.748 53.2732 38.6474 53.2732 39.7569Z" fill="#FFF8BB"/>
<path d="M32.7902 29.666C32.7902 33.0487 30.0479 35.791 26.6652 35.791C23.2824 35.791 20.5402 33.0487 20.5402 29.666C20.5402 26.2832 23.2824 23.541 26.6652 23.541C30.0479 23.541 32.7902 26.2832 32.7902 29.666Z" fill="#FFF8BB"/>
<path d="M60.9643 24.291C60.9643 27.6737 58.222 30.416 54.8393 30.416C51.4566 30.416 48.7143 27.6737 48.7143 24.291C48.7143 20.9082 51.4566 18.166 54.8393 18.166C58.222 18.166 60.9643 20.9082 60.9643 24.291Z" fill="#FFF8BB"/>
<path d="M73.971 31.291C73.971 34.6737 71.2288 37.416 67.846 37.416C64.4633 37.416 61.721 34.6737 61.721 31.291C61.721 27.9082 64.4633 25.166 67.846 25.166C71.2288 25.166 73.971 27.9082 73.971 31.291Z" fill="#FFF8BB"/>
<path d="M52.8572 26.8559C52.8572 30.2387 50.1149 32.9809 46.7322 32.9809C43.3494 32.9809 40.6072 30.2387 40.6072 26.8559C40.6072 23.4732 43.3494 20.7309 46.7322 20.7309C50.1149 20.7309 52.8572 23.4732 52.8572 26.8559Z" fill="#FFF8BB"/>
<path d="M46.7322 20.6035C46.7322 23.1233 44.6895 25.166 42.1697 25.166C39.6499 25.166 37.6072 23.1233 37.6072 20.6035C37.6072 18.0837 39.6499 16.041 42.1697 16.041C44.6895 16.041 46.7322 18.0837 46.7322 20.6035Z" fill="#FFF8BB"/>
<path d="M36.5625 34.5097C36.5625 37.1849 34.3939 39.3535 31.7188 39.3535C29.0436 39.3535 26.875 37.1849 26.875 34.5097C26.875 31.8346 29.0436 29.666 31.7188 29.666C34.3939 29.666 36.5625 31.8346 36.5625 34.5097Z" fill="#FFF8BB"/>
<path d="M44.9792 35.1129C44.9792 38.2503 42.4359 40.7937 39.2985 40.7937C36.1611 40.7937 33.6177 38.2503 33.6177 35.1129C33.6177 31.9755 36.1611 29.4321 39.2985 29.4321C42.4359 29.4321 44.9792 31.9755 44.9792 35.1129Z" fill="#FFF8BB"/>
<path d="M67.0827 34.5343C67.0827 37.6717 64.5393 40.2151 61.4019 40.2151C58.2645 40.2151 55.7211 37.6717 55.7211 34.5343C55.7211 31.3969 58.2645 28.8535 61.4019 28.8535C64.5393 28.8535 67.0827 31.3969 67.0827 34.5343Z" fill="#FFF8BB"/>
<path d="M53.8236 35.4889C53.8236 38.6263 51.2802 41.1696 48.1428 41.1696C45.0054 41.1696 42.462 38.6263 42.462 35.4889C42.462 32.3514 45.0054 29.8081 48.1428 29.8081C51.2802 29.8081 53.8236 32.3514 53.8236 35.4889Z" fill="#FFF8BB"/>
<path d="M62.2469 34.3233C62.2469 38.2892 59.032 41.5041 55.0662 41.5041C51.1003 41.5041 47.8854 38.2892 47.8854 34.3233C47.8854 30.3575 51.1003 27.1425 55.0662 27.1425C59.032 27.1425 62.2469 30.3575 62.2469 34.3233Z" fill="#FFF8BB"/>
<path d="M35.0447 24.291C35.0447 26.8108 33.002 28.8535 30.4822 28.8535C27.9624 28.8535 25.9197 26.8108 25.9197 24.291C25.9197 21.7712 27.9624 19.7285 30.4822 19.7285C33.002 19.7285 35.0447 21.7712 35.0447 24.291Z" fill="#FFF8BB"/>
<path d="M52.9453 21.58C52.9453 24.0998 50.9026 26.1425 48.3828 26.1425C45.863 26.1425 43.8203 24.0998 43.8203 21.58C43.8203 19.0602 45.863 17.0175 48.3828 17.0175C50.9026 17.0175 52.9453 19.0602 52.9453 21.58Z" fill="#FFF8BB"/>
<path d="M65.9498 24.58C65.9498 27.0998 63.9071 29.1425 61.3873 29.1425C58.8675 29.1425 56.8248 27.0998 56.8248 24.58C56.8248 22.0602 58.8675 20.0175 61.3873 20.0175C63.9071 20.0175 65.9498 22.0602 65.9498 24.58Z" fill="#FFF8BB"/>
<path d="M70.8463 27.8559C70.8463 30.3757 68.8036 32.4184 66.2838 32.4184C63.764 32.4184 61.7213 30.3757 61.7213 27.8559C61.7213 25.3361 63.764 23.2934 66.2838 23.2934C68.8036 23.2934 70.8463 25.3361 70.8463 27.8559Z" fill="#FFF8BB"/>
<path d="M74.3327 27.7773C74.3327 29.7028 72.7718 31.2637 70.8463 31.2637C68.9209 31.2637 67.36 29.7028 67.36 27.7773C67.36 25.8519 68.9209 24.291 70.8463 24.291C72.7718 24.291 74.3327 25.8519 74.3327 27.7773Z" fill="#FFF8BB"/>
<path d="M56.687 19.5273C56.687 21.4528 55.1261 23.0137 53.2007 23.0137C51.2752 23.0137 49.7143 21.4528 49.7143 19.5273C49.7143 17.6019 51.2752 16.041 53.2007 16.041C55.1261 16.041 56.687 17.6019 56.687 19.5273Z" fill="#FFF8BB"/>
<path d="M38.2733 32.9667C38.2733 33.9742 37.4566 34.7909 36.4492 34.7909C35.4417 34.7909 34.625 33.9742 34.625 32.9667C34.625 31.9593 35.4417 31.1425 36.4492 31.1425C37.4566 31.1425 38.2733 31.9593 38.2733 32.9667Z" fill="#FDD27F"/>
<path d="M53.3626 24.8378C53.3626 25.8453 52.5459 26.662 51.5385 26.662C50.531 26.662 49.7143 25.8453 49.7143 24.8378C49.7143 23.8303 50.531 23.0136 51.5385 23.0136C52.5459 23.0136 53.3626 23.8303 53.3626 24.8378Z" fill="#FDD27F"/>
<path d="M64.6942 34.2426C64.6942 35.2501 63.8775 36.0668 62.87 36.0668C61.8625 36.0668 61.0458 35.2501 61.0458 34.2426C61.0458 33.2351 61.8625 32.4184 62.87 32.4184C63.8775 32.4184 64.6942 33.2351 64.6942 34.2426Z" fill="#EEAC2B"/>
<path d="M68.9578 26.6619C68.9578 27.1031 68.6001 27.4608 68.1589 27.4608C67.7177 27.4608 67.36 27.1031 67.36 26.6619C67.36 26.2207 67.7177 25.863 68.1589 25.863C68.6001 25.863 68.9578 26.2207 68.9578 26.6619Z" fill="#EEAC2B"/>
<path d="M71.3953 29.9414C71.3953 30.3827 71.0376 30.7403 70.5964 30.7403C70.1552 30.7403 69.7975 30.3827 69.7975 29.9414C69.7975 29.5002 70.1552 29.1425 70.5964 29.1425C71.0376 29.1425 71.3953 29.5002 71.3953 29.9414Z" fill="#FDD27F"/>
<path d="M72.4441 35.7908C72.4441 36.232 72.0864 36.5897 71.6452 36.5897C71.204 36.5897 70.8463 36.232 70.8463 35.7908C70.8463 35.3496 71.204 34.9919 71.6452 34.9919C72.0864 34.9919 72.4441 35.3496 72.4441 35.7908Z" fill="#EEAC2B"/>
<path d="M67.8816 37.1971C67.8816 37.6383 67.5239 37.996 67.0827 37.996C66.6415 37.996 66.2838 37.6383 66.2838 37.1971C66.2838 36.7558 66.6415 36.3982 67.0827 36.3982C67.5239 36.3982 67.8816 36.7558 67.8816 37.1971Z" fill="#FDD27F"/>
<path d="M68.4754 32.4185C68.4754 32.8597 68.1177 33.2174 67.6765 33.2174C67.2352 33.2174 66.8776 32.8597 66.8776 32.4185C66.8776 31.9773 67.2352 31.6196 67.6765 31.6196C68.1177 31.6196 68.4754 31.9773 68.4754 32.4185Z" fill="#EEAC2B"/>
<path d="M64.4678 28.3435C64.4678 28.7848 64.1101 29.1424 63.6689 29.1424C63.2277 29.1424 62.87 28.7848 62.87 28.3435C62.87 27.9023 63.2277 27.5446 63.6689 27.5446C64.1101 27.5446 64.4678 27.9023 64.4678 28.3435Z" fill="#FDD27F"/>
<path d="M55.0662 39.1548C55.0662 39.596 54.7085 39.9537 54.2673 39.9537C53.8261 39.9537 53.4684 39.596 53.4684 39.1548C53.4684 38.7136 53.8261 38.3559 54.2673 38.3559C54.7085 38.3559 55.0662 38.7136 55.0662 39.1548Z" fill="#EEAC2B"/>
<path d="M46.7949 20.3559C46.7949 20.7024 46.5139 20.9834 46.1674 20.9834C45.8208 20.9834 45.5399 20.7024 45.5399 20.3559C45.5399 20.0094 45.8208 19.7284 46.1674 19.7284C46.5139 19.7284 46.7949 20.0094 46.7949 20.3559Z" fill="#FDD27F"/>
<path d="M60.9643 23.0137C60.9643 23.4549 60.6066 23.8126 60.1654 23.8126C59.7242 23.8126 59.3665 23.4549 59.3665 23.0137C59.3665 22.5725 59.7242 22.2148 60.1654 22.2148C60.6066 22.2148 60.9643 22.5725 60.9643 23.0137Z" fill="#FDD27F"/>
<path d="M54.455 20.0176C54.455 20.4588 54.0973 20.8165 53.6561 20.8165C53.2149 20.8165 52.8572 20.4588 52.8572 20.0176C52.8572 19.5764 53.2149 19.2187 53.6561 19.2187C54.0973 19.2187 54.455 19.5764 54.455 20.0176Z" fill="#FDD27F"/>
<path d="M57.4859 27.856C57.4859 28.2972 57.1282 28.6549 56.687 28.6549C56.2458 28.6549 55.8881 28.2972 55.8881 27.856C55.8881 27.4148 56.2458 27.0571 56.687 27.0571C57.1282 27.0571 57.4859 27.4148 57.4859 27.856Z" fill="#EEAC2B"/>
<path d="M61.0459 30.231C61.0459 30.6722 60.6882 31.0299 60.247 31.0299C59.8057 31.0299 59.4481 30.6722 59.4481 30.231C59.4481 29.7898 59.8057 29.4321 60.247 29.4321C60.6882 29.4321 61.0459 29.7898 61.0459 30.231Z" fill="#EEAC2B"/>
<path d="M54.1615 29.9414C54.1615 30.3827 53.8038 30.7403 53.3626 30.7403C52.9214 30.7403 52.5637 30.3827 52.5637 29.9414C52.5637 29.5002 52.9214 29.1425 53.3626 29.1425C53.8038 29.1425 54.1615 29.5002 54.1615 29.9414Z" fill="#FDD27F"/>
<path d="M56.8248 34.1399C56.8248 34.7799 56.306 35.2988 55.6659 35.2988C55.0258 35.2988 54.507 34.7799 54.507 34.1399C54.507 33.4998 55.0258 32.9809 55.6659 32.9809C56.306 32.9809 56.8248 33.4998 56.8248 34.1399Z" fill="#FDD27F"/>
<path d="M61.0458 38.3559C61.0458 38.996 60.527 39.5149 59.8869 39.5149C59.2468 39.5149 58.728 38.996 58.728 38.3559C58.728 37.7159 59.2468 37.197 59.8869 37.197C60.527 37.197 61.0458 37.7159 61.0458 38.3559Z" fill="#FDD27F"/>
<path d="M46.1382 37.4497C46.1382 38.0897 45.6193 38.6086 44.9792 38.6086C44.3392 38.6086 43.8203 38.0897 43.8203 37.4497C43.8203 36.8096 44.3392 36.2907 44.9792 36.2907C45.6193 36.2907 46.1382 36.8096 46.1382 37.4497Z" fill="#FDD27F"/>
<path d="M48 31.03C48 31.6701 47.4811 32.1889 46.8411 32.1889C46.201 32.1889 45.6821 31.6701 45.6821 31.03C45.6821 30.3899 46.201 29.8711 46.8411 29.8711C47.4811 29.8711 48 30.3899 48 31.03Z" fill="#FDD27F"/>
<path d="M31.3692 34.791C31.3692 35.431 30.8503 35.9499 30.2103 35.9499C29.5702 35.9499 29.0513 35.431 29.0513 34.791C29.0513 34.1509 29.5702 33.632 30.2103 33.632C30.8503 33.632 31.3692 34.1509 31.3692 34.791Z" fill="#FDD27F"/>
<path d="M29.0513 27.0571C29.0513 27.6972 28.5325 28.216 27.8924 28.216C27.2523 28.216 26.7335 27.6972 26.7335 27.0571C26.7335 26.417 27.2523 25.8982 27.8924 25.8982C28.5325 25.8982 29.0513 26.417 29.0513 27.0571Z" fill="#FDD27F"/>
<path d="M39.8804 25.4499C39.8804 26.09 39.3615 26.6089 38.7214 26.6089C38.0814 26.6089 37.5625 26.09 37.5625 25.4499C37.5625 24.8099 38.0814 24.291 38.7214 24.291C39.3615 24.291 39.8804 24.8099 39.8804 25.4499Z" fill="#FDD27F"/>
<path d="M42.5521 19.7284C42.5521 20.4662 41.954 21.0643 41.2163 21.0643C40.4785 21.0643 39.8804 20.4662 39.8804 19.7284C39.8804 18.9906 40.4785 18.3925 41.2163 18.3925C41.954 18.3925 42.5521 18.9906 42.5521 19.7284Z" fill="#FFFFFE"/>
<path d="M51.6024 35.4162C51.6024 36.0643 51.077 36.5897 50.4289 36.5897C49.7808 36.5897 49.2554 36.0643 49.2554 35.4162C49.2554 34.7681 49.7808 34.2426 50.4289 34.2426C51.077 34.2426 51.6024 34.7681 51.6024 35.4162Z" fill="#FFFFFE"/>
<path d="M38.2733 37.4159C38.2733 38.0641 37.7479 38.5895 37.0998 38.5895C36.4517 38.5895 35.9263 38.0641 35.9263 37.4159C35.9263 36.7678 36.4517 36.2424 37.0998 36.2424C37.7479 36.2424 38.2733 36.7678 38.2733 37.4159Z" fill="#FFFFFE"/>
<path d="M43.3432 32.7931C43.3432 33.4413 42.8178 33.9667 42.1697 33.9667C41.5216 33.9667 40.9962 33.4413 40.9962 32.7931C40.9962 32.145 41.5216 31.6196 42.1697 31.6196C42.8178 31.6196 43.3432 32.145 43.3432 32.7931Z" fill="#FFFFFE"/>
<path d="M46.1674 25.1659C46.1674 25.8141 45.642 26.3395 44.9938 26.3395C44.3457 26.3395 43.8203 25.8141 43.8203 25.1659C43.8203 24.5178 44.3457 23.9924 44.9938 23.9924C45.642 23.9924 46.1674 24.5178 46.1674 25.1659Z" fill="#FFFFFE"/>
<path d="M33.7163 28.6344C33.7163 29.2826 33.1909 29.808 32.5427 29.808C31.8946 29.808 31.3692 29.2826 31.3692 28.6344C31.3692 27.9863 31.8946 27.4609 32.5427 27.4609C33.1909 27.4609 33.7163 27.9863 33.7163 28.6344Z" fill="#FFFFFE"/>
<path d="M31.3984 22.8189C31.3984 23.467 30.873 23.9924 30.2249 23.9924C29.5767 23.9924 29.0513 23.467 29.0513 22.8189C29.0513 22.1707 29.5767 21.6453 30.2249 21.6453C30.873 21.6453 31.3984 22.1707 31.3984 22.8189Z" fill="#FFFFFE"/>
<path d="M26.4291 31.6592C26.4291 32.4481 25.7897 33.0875 25.0009 33.0875C24.2121 33.0875 23.5726 32.4481 23.5726 31.6592C23.5726 30.8704 24.2121 30.231 25.0009 30.231C25.7897 30.231 26.4291 30.8704 26.4291 31.6592Z" fill="#FFFFFE"/>
</svg>
