<svg width="96" height="97" viewBox="0 0 96 97" fill="none" xmlns="http://www.w3.org/2000/svg">
<path d="M36.6158 83.8826L28.3639 75.7085C26.9582 74.316 28.3025 71.4665 30.2295 71.017C38.1309 69.1739 42.5225 60.8977 46.5656 55.6027L46.5924 55.5676C51.6104 48.9956 52.0482 48.4223 64.5471 45.9699C71.0071 44.7025 74.4164 41.3706 76.047 38.3009C76.8719 36.748 79.3847 35.9201 80.624 37.1675L87.7072 44.2965C88.1651 44.7573 88.3785 45.4152 88.2266 46.0467C86.0555 55.0692 77.05 58.5254 72.6691 59.1266C66.7406 60.0502 61.9805 61.652 55.7204 72.1407C49.8517 81.9736 41.805 84.3926 37.8668 84.422C37.3943 84.4256 36.9515 84.2151 36.6158 83.8826Z" fill="#D2492A"/>
<path fill-rule="evenodd" clip-rule="evenodd" d="M46.5924 55.5676L46.5656 55.6027C45.8425 56.5497 45.1082 57.5921 44.3447 58.6759C40.8394 63.6523 36.7177 69.5035 30.2295 71.017C28.3025 71.4665 26.9582 74.316 28.3639 75.7085L36.6158 83.8826L35.2083 85.3035L26.9564 77.1294C25.4486 75.6358 25.6281 73.5852 26.2067 72.2258C26.7898 70.856 28.0388 69.4743 29.7751 69.0693C33.141 68.2842 35.8733 66.1057 38.3392 63.2874C39.5675 61.8835 40.6961 60.3603 41.7896 58.8254C42.0884 58.4059 42.3877 57.981 42.6865 57.5569C43.459 56.4603 44.2279 55.3686 44.9759 54.389C44.9759 54.389 44.976 54.389 44.976 54.389L45.0027 54.3539L45.0028 54.3539C45.0624 54.2758 45.1215 54.1983 45.1802 54.1214C47.5265 51.0474 49.1275 48.9497 51.7966 47.4737C54.4275 46.0188 58.0085 45.2147 64.162 44.0074C70.0379 42.8545 72.9362 39.894 74.2807 37.3627C74.9974 36.0135 76.335 35.1194 77.6468 34.7565C78.951 34.3957 80.7384 34.445 82.0428 35.7578L89.126 42.8868C90.0239 43.7905 90.501 45.1434 90.1711 46.5146L88.2266 46.0468C88.3785 45.4152 88.1651 44.7573 87.7072 44.2965L80.624 37.1675C79.3847 35.9201 76.8719 36.748 76.047 38.3009C74.4164 41.3706 71.0071 44.7025 64.5471 45.97C52.0482 48.4223 51.6104 48.9956 46.5924 55.5676ZM72.9598 61.1054C70.1031 61.5513 67.7812 62.1269 65.4361 63.7058C63.058 65.3069 60.4856 68.0591 57.4378 73.1657C51.2049 83.6089 42.5069 86.3874 37.8817 86.422C36.7929 86.4302 35.858 85.9471 35.2083 85.3035L36.6158 83.8826C36.9515 84.2151 37.3943 84.4256 37.8668 84.4221C41.805 84.3926 49.8517 81.9737 55.7204 72.1407C61.9805 61.652 66.7406 60.0502 72.6691 59.1266C77.0499 58.5254 86.0555 55.0692 88.2266 46.0468L90.1711 46.5147C88.9414 51.625 85.7718 55.1294 82.3934 57.4037C79.0516 59.6535 75.419 60.7649 72.9598 61.1054Z" fill="#9B0D0D"/>
<path d="M64.5471 45.9699C71.0071 44.7025 74.4164 41.3706 76.047 38.3009C76.8719 36.748 79.3847 35.9201 80.624 37.1675L82.3049 38.8592C82.6772 39.2339 82.8938 39.7426 82.8591 40.2696C82.232 49.7915 70.8544 54.9123 65.75 55.6027C60.5 56.3128 53.625 52.8926 46.5656 64.1426C41.5027 72.2109 34.9671 76.1064 31.4822 77.3876C30.8218 77.6304 30.0979 77.4261 29.598 76.9309L28.3639 75.7085C26.9582 74.316 28.3025 71.4665 30.2295 71.017C38.1309 69.1739 42.5225 60.8977 46.5656 55.6027L46.5924 55.5676C51.6104 48.9956 52.0482 48.4223 64.5471 45.9699Z" fill="#B0351A"/>
<path d="M76.8707 52.0504C76.3886 52.4144 75.7533 52.3857 75.4517 51.9863C75.1501 51.5868 75.2964 50.9679 75.7785 50.6039C76.2605 50.2399 76.8958 50.2687 77.1974 50.6681C77.499 51.0675 77.3527 51.6864 76.8707 52.0504Z" fill="#A42F15"/>
<path d="M76.349 48.7021C75.8669 49.0661 75.2317 49.0374 74.9301 48.638C74.6284 48.2385 74.7747 47.6196 75.2568 47.2556C75.7389 46.8916 76.3742 46.9204 76.6758 47.3198C76.9774 47.7192 76.8311 48.3381 76.349 48.7021Z" fill="#A42F15"/>
<path d="M72.9773 53.2479C72.4953 53.6119 71.86 53.5831 71.5584 53.1837C71.2568 52.7843 71.4031 52.1654 71.8851 51.8014C72.3672 51.4374 73.0025 51.4661 73.3041 51.8655C73.6057 52.265 73.4594 52.8838 72.9773 53.2479Z" fill="#A42F15"/>
<path d="M75.8288 55.5137C75.3468 55.8777 74.7115 55.8489 74.4099 55.4495C74.1083 55.0501 74.2546 54.4312 74.7366 54.0672C75.2187 53.7032 75.854 53.7319 76.1556 54.1313C76.4572 54.5308 76.3109 55.1497 75.8288 55.5137Z" fill="#A42F15"/>
<path d="M80.2248 49.54C79.5486 50.0506 78.6574 50.0103 78.2344 49.45C77.8113 48.8897 78.0165 48.0216 78.6927 47.511C79.369 47.0004 80.2601 47.0406 80.6832 47.6009C81.1063 48.1612 80.9011 49.0294 80.2248 49.54Z" fill="#A42F15"/>
<path d="M80.1183 53.7376C79.442 54.2483 78.5509 54.208 78.1278 53.6477C77.7047 53.0874 77.91 52.2192 78.5862 51.7086C79.2624 51.198 80.1536 51.2383 80.5766 51.7986C80.9997 52.3589 80.7945 53.227 80.1183 53.7376Z" fill="#A42F15"/>
<path d="M84.4475 49.6336C83.7713 50.1442 82.8802 50.104 82.4571 49.5437C82.034 48.9834 82.2392 48.1152 82.9155 47.6046C83.5917 47.094 84.4828 47.1343 84.9059 47.6946C85.329 48.2549 85.1238 49.123 84.4475 49.6336Z" fill="#A42F15"/>
<path d="M82.5302 46.2537C82.1654 46.5291 81.6847 46.5074 81.4565 46.2052C81.2283 45.903 81.339 45.4347 81.7038 45.1593C82.0685 44.8838 82.5492 44.9056 82.7774 45.2078C83.0056 45.51 82.8949 45.9783 82.5302 46.2537Z" fill="#A42F15"/>
<path d="M82.3506 43.8148C81.9859 44.0902 81.5052 44.0685 81.277 43.7663C81.0487 43.464 81.1594 42.9957 81.5242 42.7203C81.889 42.4449 82.3697 42.4666 82.5979 42.7689C82.8261 43.0711 82.7154 43.5394 82.3506 43.8148Z" fill="#A42F15"/>
<path d="M79.7862 45.8896C79.4214 46.165 78.9407 46.1432 78.7125 45.841C78.4843 45.5388 78.595 45.0705 78.9597 44.7951C79.3245 44.5197 79.8052 44.5414 80.0334 44.8436C80.2616 45.1459 80.1509 45.6141 79.7862 45.8896Z" fill="#A42F15"/>
<path d="M77.4157 43.3604C77.0509 43.6358 76.5702 43.6141 76.342 43.3119C76.1138 43.0096 76.2245 42.5414 76.5893 42.2659C76.954 41.9905 77.4347 42.0122 77.6629 42.3145C77.8912 42.6167 77.7805 43.085 77.4157 43.3604Z" fill="#A42F15"/>
<path d="M71.2983 56.6729C70.9335 56.9483 70.4528 56.9266 70.2246 56.6244C69.9964 56.3221 70.1071 55.8539 70.4719 55.5784C70.8366 55.303 71.3173 55.3247 71.5455 55.627C71.7737 55.9292 71.663 56.3975 71.2983 56.6729Z" fill="#A42F15"/>
<path d="M73.1435 47.9974C72.7787 48.2728 72.298 48.2511 72.0698 47.9488C71.8416 47.6466 71.9523 47.1783 72.3171 46.9029C72.6818 46.6275 73.1625 46.6492 73.3907 46.9514C73.619 47.2537 73.5083 47.722 73.1435 47.9974Z" fill="#A42F15"/>
<path fill-rule="evenodd" clip-rule="evenodd" d="M50.3563 53.4229C51.1116 52.6169 52.3772 52.5759 53.1832 53.3312L60.3307 60.0295C61.1367 60.7848 61.1778 62.0505 60.4225 62.8565C59.6671 63.6624 58.4015 63.7035 57.5955 62.9482L50.448 56.2498C49.642 55.4945 49.601 54.2289 50.3563 53.4229Z" fill="#E05739"/>
<path fill-rule="evenodd" clip-rule="evenodd" d="M31.3826 72.8107C32.1471 72.0134 33.4131 71.9868 34.2104 72.7512L40.6799 78.9543C41.4772 79.7187 41.5038 80.9848 40.7393 81.7821C39.9749 82.5794 38.7088 82.606 37.9115 81.8415L31.4421 75.6385C30.6448 74.874 30.6182 73.608 31.3826 72.8107Z" fill="#E05739"/>
<path fill-rule="evenodd" clip-rule="evenodd" d="M84.5431 44.5169C85.0285 44.7802 85.2087 45.3872 84.9454 45.8727C81.808 51.6582 77.6315 54.5582 72.0022 55.8151C70.4978 56.151 69.2172 56.3883 68.066 56.6016C64.989 57.1719 62.8369 57.5707 59.8074 59.2226C57.883 60.2718 56.5077 62.0354 54.9724 64.4328C54.6102 64.9983 54.2396 65.5987 53.8517 66.2269C52.6256 68.2127 51.2279 70.4762 49.385 72.7967C45.5558 77.6179 41.2847 79.5404 38.2453 80.6025C37.724 80.7847 37.1536 80.5097 36.9714 79.9884C36.7892 79.467 37.0642 78.8967 37.5855 78.7145C40.425 77.7222 44.3104 75.9702 47.8189 71.5528C49.581 69.3342 50.8921 67.2112 52.1075 65.2433C52.5072 64.5961 52.8966 63.9657 53.2882 63.3542C54.8426 60.927 56.4469 58.7769 58.85 57.4666C62.1783 55.6518 64.7132 55.1827 67.9092 54.5912C69.0267 54.3844 70.225 54.1626 71.5664 53.8631C76.6404 52.7302 80.3299 50.1883 83.1873 44.9193C83.4506 44.4338 84.0576 44.2536 84.5431 44.5169Z" fill="#FD9E75"/>
<path fill-rule="evenodd" clip-rule="evenodd" d="M80.4144 40.8921C80.8854 41.1806 81.0333 41.7962 80.7449 42.2672C77.4792 47.5992 73.547 50.3294 67.8975 51.4986C66.4459 51.7989 65.1982 52.0022 64.0788 52.1845C60.8875 52.7043 58.7401 53.0541 55.889 55.0007C53.5681 56.5853 52.053 58.3052 50.5223 60.4067C49.9825 61.1478 49.425 61.961 48.8231 62.839C47.7514 64.4023 46.5388 66.1711 45.0339 68.105C41.1305 73.1211 37.2457 75.3075 33.7982 75.7452C33.2503 75.8147 32.7497 75.427 32.6802 74.8791C32.6106 74.3312 32.9984 73.8307 33.5463 73.7611C36.3142 73.4097 39.7666 71.6172 43.4555 66.8768C44.9388 64.9705 46.0647 63.3259 47.1037 61.8081C47.7161 60.9136 48.2983 60.0631 48.9057 59.2292C50.5141 57.0209 52.1854 55.1076 54.7613 53.3489C58.007 51.1329 60.681 50.6998 64.0202 50.1588C65.0949 49.9848 66.2385 49.7995 67.4922 49.5401C72.582 48.4868 76.0521 46.1 79.0393 41.2226C79.3278 40.7516 79.9434 40.6036 80.4144 40.8921Z" fill="#FD9E75"/>
<path d="M11.262 51.9819L5.7945 41.7342C4.86309 39.9884 6.98956 37.6635 8.96326 37.8036C17.0564 38.378 23.6978 31.7694 29.1252 27.9058L29.1611 27.8802C35.8974 23.0848 36.485 22.6665 49.1503 24.0176C55.6964 24.716 59.9381 22.5406 62.4031 20.0899C63.65 18.8501 66.2953 18.8019 67.1106 20.3598L71.7705 29.2637C72.0717 29.8392 72.0812 30.5308 71.7494 31.0893C67.0088 39.0671 57.384 39.7074 53.0212 38.987C47.0846 38.1172 42.0637 38.2407 32.9834 46.4107C24.4708 54.07 16.0687 54.0027 12.2977 52.867C11.8452 52.7307 11.4844 52.3988 11.262 51.9819Z" fill="#D4482A"/>
<path fill-rule="evenodd" clip-rule="evenodd" d="M29.1611 27.8802L29.1252 27.9058C28.1545 28.5968 27.145 29.3756 26.0953 30.1854C21.2758 33.9035 15.609 38.2753 8.96326 37.8036C6.98956 37.6635 4.86309 39.9884 5.7945 41.7342L11.262 51.9819L9.49743 52.9234L4.02994 42.6756C3.03091 40.8032 3.80839 38.8972 4.76295 37.7695C5.7248 36.6332 7.32635 35.6824 9.10485 35.8086C12.5524 36.0533 15.8064 34.7797 18.9951 32.816C20.5835 31.8378 22.1119 30.7162 23.6101 29.5731C24.0195 29.2607 24.4311 28.9432 24.8419 28.6263C25.9039 27.807 26.9611 26.9913 27.9653 26.2765C27.9653 26.2765 27.9653 26.2765 27.9653 26.2765L28.0012 26.2509L28.0013 26.2509C28.0813 26.1939 28.1607 26.1374 28.2395 26.0813C31.3894 23.838 33.5389 22.3071 36.525 21.6859C39.4684 21.0735 43.127 21.3637 49.3625 22.0289C55.3167 22.6641 58.9604 20.6924 60.993 18.6716C62.0763 17.5945 63.6185 17.1356 64.979 17.1766C66.3315 17.2174 68.0245 17.7927 68.8826 19.4324L73.5425 28.3363C74.1332 29.465 74.1892 30.8985 73.4687 32.1109L71.7494 31.0893C72.0812 30.5308 72.0717 29.8392 71.7705 29.2637L67.1106 20.3598C66.2953 18.8019 63.65 18.8502 62.4031 20.0899C59.9381 22.5406 55.6964 24.716 49.1503 24.0176C36.485 22.6665 35.8974 23.0848 29.1611 27.8802ZM52.7141 40.9633C49.8532 40.545 47.4649 40.4087 44.758 41.2239C42.0129 42.0507 38.7421 43.9197 34.3212 47.8974C25.2803 56.032 16.1497 56.1159 11.7209 54.782C10.6783 54.468 9.92789 53.7302 9.49743 52.9234L11.262 51.9819C11.4844 52.3988 11.8452 52.7307 12.2977 52.867C16.0687 54.0027 24.4708 54.07 32.9834 46.4107C42.0637 38.2407 47.0846 38.1172 53.0212 38.987C57.384 39.7074 67.0088 39.0671 71.7494 31.0893L73.4687 32.1109C70.7836 36.6296 66.72 39.0407 62.8203 40.215C58.9629 41.3766 55.1642 41.3648 52.7141 40.9633Z" fill="#891616"/>
<path d="M59.7696 34.029C59.1649 34.2891 58.5001 34.0938 58.2846 33.5928C58.0691 33.0918 58.3845 32.4748 58.9892 32.2147C59.5939 31.9546 60.2587 32.1499 60.4742 32.6509C60.6897 33.1519 60.3742 33.7689 59.7696 34.029Z" fill="#AD2F13"/>
<path d="M60.0867 30.35C59.482 30.6101 58.8172 30.4148 58.6017 29.9138C58.3862 29.4128 58.7016 28.7958 59.3063 28.5357C59.911 28.2756 60.5758 28.4709 60.7913 28.9719C61.0068 29.4729 60.6913 30.0899 60.0867 30.35Z" fill="#AD2F13"/>
<path d="M55.3386 34.2854C54.7339 34.5455 54.069 34.3502 53.8535 33.8492C53.638 33.3482 53.9535 32.7312 54.5582 32.4711C55.1628 32.2111 55.8277 32.4064 56.0432 32.9074C56.2587 33.4084 55.9432 34.0253 55.3386 34.2854Z" fill="#AD2F13"/>
<path d="M57.768 37.4235C57.1634 37.6836 56.4985 37.4883 56.283 36.9873C56.0675 36.4863 56.383 35.8693 56.9877 35.6092C57.5923 35.3491 58.2572 35.5444 58.4727 36.0454C58.6882 36.5465 58.3727 37.1634 57.768 37.4235Z" fill="#AD2F13"/>
<path d="M63.971 32.243C63.1228 32.6078 62.1901 32.3339 61.8878 31.6311C61.5856 30.9283 62.0281 30.0628 62.8763 29.698C63.7245 29.3332 64.6571 29.6071 64.9594 30.3099C65.2617 31.0127 64.8191 31.8782 63.971 32.243Z" fill="#AD2F13"/>
<path d="M62.7685 36.6575C61.9203 37.0223 60.9877 36.7484 60.6854 36.0456C60.3831 35.3428 60.8257 34.4774 61.6738 34.1125C62.522 33.7477 63.4547 34.0217 63.757 34.7244C64.0592 35.4272 63.6167 36.2927 62.7685 36.6575Z" fill="#AD2F13"/>
<path d="M68.4154 33.4382C67.5672 33.803 66.6346 33.529 66.3323 32.8263C66.03 32.1235 66.4726 31.258 67.3207 30.8932C68.1689 30.5284 69.1016 30.8023 69.4038 31.5051C69.7061 32.2079 69.2636 33.0733 68.4154 33.4382Z" fill="#AD2F13"/>
<path d="M67.2638 29.3635C66.8063 29.5603 66.3032 29.4126 66.1402 29.0335C65.9771 28.6544 66.2158 28.1875 66.6733 27.9908C67.1308 27.794 67.6339 27.9417 67.797 28.3208C67.96 28.6999 67.7213 29.1667 67.2638 29.3635Z" fill="#AD2F13"/>
<path d="M67.7068 26.7359C67.2493 26.9326 66.7462 26.7849 66.5831 26.4058C66.4201 26.0267 66.6588 25.5599 67.1163 25.3631C67.5738 25.1663 68.0769 25.3141 68.24 25.6931C68.403 26.0722 68.1643 26.5391 67.7068 26.7359Z" fill="#AD2F13"/>
<path d="M64.4543 28.2658C63.9967 28.4626 63.4937 28.3148 63.3306 27.9357C63.1676 27.5566 63.4063 27.0898 63.8638 26.893C64.3213 26.6962 64.8244 26.844 64.9874 27.2231C65.1505 27.6022 64.9118 28.069 64.4543 28.2658Z" fill="#AD2F13"/>
<path d="M62.6022 24.974C62.1447 25.1707 61.6416 25.023 61.4785 24.6439C61.3155 24.2648 61.5542 23.798 62.0117 23.6012C62.4692 23.4044 62.9723 23.5522 63.1353 23.9312C63.2984 24.3103 63.0597 24.7772 62.6022 24.974Z" fill="#AD2F13"/>
<path d="M52.6725 37.4744C52.215 37.6712 51.7119 37.5235 51.5488 37.1444C51.3858 36.7653 51.6245 36.2984 52.082 36.1017C52.5395 35.9049 53.0426 36.0526 53.2057 36.4317C53.3687 36.8108 53.13 37.2776 52.6725 37.4744Z" fill="#AD2F13"/>
<path d="M56.8773 28.7722C56.4198 28.969 55.9167 28.8212 55.7536 28.4421C55.5906 28.063 55.8293 27.5962 56.2868 27.3994C56.7443 27.2026 57.2474 27.3504 57.4105 27.7295C57.5735 28.1086 57.3348 28.5754 56.8773 28.7722Z" fill="#AD2F13"/>
<path fill-rule="evenodd" clip-rule="evenodd" d="M33.8372 25.8284C34.7917 25.2725 36.0161 25.5955 36.5721 26.55L42.2285 36.2609C42.7844 37.2154 42.4613 38.4398 41.5069 38.9957C40.5524 39.5517 39.328 39.2286 38.772 38.2742L33.1157 28.5632C32.5597 27.6088 32.8828 26.3843 33.8372 25.8284Z" fill="#EB5E3F"/>
<path fill-rule="evenodd" clip-rule="evenodd" d="M8.45836 38.9945C9.43142 38.4718 10.644 38.8369 11.1667 39.8099L16.0745 48.9462C16.5972 49.9192 16.2322 51.1318 15.2591 51.6545C14.286 52.1772 13.0735 51.8121 12.5508 50.8391L7.64294 41.7029C7.12022 40.7298 7.4853 39.5172 8.45836 38.9945Z" fill="#EB5E3F"/>
<path fill-rule="evenodd" clip-rule="evenodd" d="M68.6825 28.5391C69.0685 28.9341 69.0612 29.5673 68.6662 29.9532C63.9591 34.5531 59.1121 36.0892 53.3628 35.6263C51.8263 35.5026 50.5328 35.3508 49.37 35.2144C46.2619 34.8498 44.088 34.5948 40.7057 35.2775C38.5572 35.7112 36.7221 36.9895 34.5469 38.826C34.0337 39.2593 33.5022 39.7233 32.946 40.2088C31.1877 41.7435 29.1836 43.4929 26.7372 45.165C21.6542 48.6392 17.0056 49.2135 13.7881 49.3299C13.2362 49.3499 12.7726 48.9187 12.7526 48.3667C12.7327 47.8148 13.1639 47.3512 13.7158 47.3312C16.7217 47.2224 20.9514 46.6971 25.6086 43.5138C27.9477 41.9151 29.8277 40.2744 31.5704 38.7536C32.1435 38.2535 32.7018 37.7663 33.2567 37.2979C35.4589 35.4385 37.627 33.8586 40.31 33.317C44.026 32.567 46.5863 32.8679 49.8143 33.2474C50.943 33.3801 52.1534 33.5224 53.5233 33.6327C58.7055 34.05 62.9815 32.712 67.2684 28.5228C67.6634 28.1368 68.2965 28.1441 68.6825 28.5391Z" fill="#E7B469"/>
<path fill-rule="evenodd" clip-rule="evenodd" d="M65.8096 23.8561C66.1742 24.2708 66.1336 24.9027 65.7189 25.2674C61.0232 29.3961 56.4598 30.8423 50.7172 30.2895C49.2416 30.1475 47.9896 29.9729 46.8663 29.8162C43.6639 29.3696 41.5091 29.0691 38.2101 30.0862C35.5245 30.9141 33.5688 32.1093 31.4854 33.6646C30.7506 34.2131 29.9778 34.8252 29.1432 35.4861C27.6574 36.6628 25.9762 37.9942 23.967 39.397C18.7555 43.0354 14.398 43.976 10.9752 43.3753C10.4312 43.2798 10.0676 42.7614 10.1631 42.2175C10.2586 41.6735 10.7769 41.3099 11.3209 41.4054C14.069 41.8877 17.8969 41.1956 22.8221 37.7571C24.8025 36.3744 26.3642 35.136 27.8053 33.9931C28.6547 33.3195 29.4622 32.6791 30.289 32.0619C32.4782 30.4277 34.6403 29.0938 37.6209 28.1749C41.3765 27.0171 44.0591 27.3936 47.4089 27.8637C48.4871 28.015 49.6344 28.176 50.9088 28.2987C56.0825 28.7967 60.1029 27.5421 64.3982 23.7654C64.813 23.4007 65.4449 23.4413 65.8096 23.8561Z" fill="#E7B469"/>
<path d="M20.0829 73.5659L13.1876 64.219C12.013 62.6267 13.78 60.0181 15.7532 59.8706C23.8441 59.2658 29.4574 51.7642 34.2673 47.1547L34.2992 47.1241C40.2691 41.4029 40.7899 40.9038 53.5173 40.4047C60.0954 40.1467 63.977 37.3794 66.0607 34.5973C67.1148 33.1899 69.7251 32.7587 70.7576 34.1819L76.659 42.3163C77.0405 42.8421 77.1501 43.525 76.9027 44.1256C73.3687 52.7064 63.9385 54.7351 59.5173 54.6548C53.5173 54.6548 48.5673 55.5048 40.7673 64.9048C33.4549 73.7172 25.1318 74.8686 21.236 74.2915C20.7686 74.2223 20.3634 73.9462 20.0829 73.5659Z" fill="#E85434"/>
<path fill-rule="evenodd" clip-rule="evenodd" d="M34.2992 47.1241L34.2673 47.1547C33.4071 47.9791 32.5211 48.896 31.5999 49.8494C27.3703 54.2269 22.397 59.3739 15.7532 59.8706C13.78 60.0181 12.013 62.6267 13.1876 64.219L20.0829 73.5659L18.4735 74.7532L11.5782 65.4063C10.3183 63.6984 10.8113 61.6999 11.5923 60.4458C12.3792 59.1821 13.826 58.0091 15.6041 57.8762C19.0507 57.6185 22.0857 55.8866 24.9561 53.4814C26.3858 52.2834 27.7355 50.9521 29.0522 49.6038C29.412 49.2353 29.7732 48.8616 30.1337 48.4884C31.0657 47.5238 31.9936 46.5636 32.8835 45.7107C32.8835 45.7107 32.8835 45.7107 32.8835 45.7107L32.9154 45.6802L32.9154 45.6802C32.9863 45.6122 33.0567 45.5447 33.1265 45.4778C35.918 42.8015 37.8229 40.9753 40.6873 39.9278C43.5109 38.8952 47.1729 38.6519 53.4389 38.4062C59.4223 38.1716 62.7417 35.6925 64.4599 33.3984C65.3757 32.1756 66.835 31.498 68.1871 31.3414C69.5313 31.1856 71.2897 31.5095 72.3765 33.0075L78.2779 41.1418C79.0259 42.1729 79.2891 43.5831 78.752 44.8873L76.9027 44.1256C77.1501 43.525 77.0405 42.842 76.659 42.3163L70.7576 34.1819C69.7251 32.7586 67.1148 33.1899 66.0607 34.5973C63.977 37.3794 60.0954 40.1467 53.5173 40.4047C40.7899 40.9038 40.2691 41.4029 34.2992 47.1241ZM59.4999 56.6548C56.6086 56.6556 54.2258 56.8669 51.6656 58.066C49.0694 59.2819 46.104 61.6053 42.3064 66.1819C34.5402 75.5412 25.5183 76.9477 20.9429 76.2699C19.8658 76.1104 19.0163 75.4891 18.4735 74.7532L20.0829 73.5659C20.3634 73.9462 20.7686 74.2223 21.236 74.2915C25.1318 74.8686 33.4549 73.7172 40.7673 64.9048C48.5673 55.5048 53.5173 54.6548 59.5173 54.6548C63.9385 54.7351 73.3687 52.7064 76.9027 44.1256L78.752 44.8873C76.7504 49.7474 73.0792 52.7221 69.3909 54.4493C65.7426 56.1579 61.9823 56.6968 59.4999 56.6548Z" fill="#9B0D0D"/>
<path d="M65.4266 48.6653C64.859 48.9696 64.1945 48.8351 63.9423 48.3648C63.6901 47.8946 63.9458 47.2666 64.5134 46.9622C65.081 46.6579 65.7456 46.7924 65.9977 47.2627C66.2499 47.733 65.9942 48.3609 65.4266 48.6653Z" fill="#C8391A"/>
<path d="M65.4266 45.0524C64.859 45.3567 64.1945 45.2222 63.9423 44.7519C63.6901 44.2816 63.9458 43.6536 64.5134 43.3493C65.081 43.0449 65.7456 43.1795 65.9977 43.6497C66.2499 44.12 65.9942 44.748 65.4266 45.0524Z" fill="#C8391A"/>
<path d="M61.1286 49.2876C60.561 49.592 59.8964 49.4575 59.6443 48.9872C59.3921 48.5169 59.6478 47.8889 60.2154 47.5846C60.783 47.2802 61.4475 47.4148 61.6997 47.885C61.9519 48.3553 61.6962 48.9833 61.1286 49.2876Z" fill="#C8391A"/>
<path d="M63.7607 52.1426C63.1931 52.4469 62.5286 52.3124 62.2764 51.8421C62.0242 51.3718 62.2799 50.7439 62.8475 50.4395C63.4151 50.1352 64.0796 50.2697 64.3318 50.74C64.584 51.2103 64.3283 51.8382 63.7607 52.1426Z" fill="#C8391A"/>
<path d="M69.3722 46.5711C68.576 46.9981 67.6438 46.8094 67.2901 46.1497C66.9363 45.49 67.295 44.6091 68.0912 44.1822C68.8874 43.7552 69.8196 43.9439 70.1733 44.6036C70.527 45.2633 70.1684 46.1442 69.3722 46.5711Z" fill="#C8391A"/>
<path d="M68.571 50.9759C67.7748 51.4028 66.8426 51.2141 66.4889 50.5544C66.1351 49.8947 66.4938 49.0138 67.29 48.5869C68.0862 48.16 69.0184 48.3487 69.3721 49.0084C69.7258 49.6681 69.3672 50.549 68.571 50.9759Z" fill="#C8391A"/>
<path d="M73.8053 47.3629C73.0091 47.7899 72.0769 47.6012 71.7232 46.9415C71.3694 46.2818 71.7281 45.4009 72.5243 44.974C73.3205 44.5471 74.2527 44.7357 74.6064 45.3954C74.9602 46.0551 74.6015 46.936 73.8053 47.3629Z" fill="#C8391A"/>
<path d="M72.3401 43.4874C71.9107 43.7177 71.4078 43.6159 71.217 43.26C71.0262 42.9042 71.2197 42.429 71.6492 42.1987C72.0786 41.9685 72.5815 42.0702 72.7723 42.4261C72.9631 42.7819 72.7696 43.2571 72.3401 43.4874Z" fill="#C8391A"/>
<path d="M72.5512 40.8885C72.1218 41.1188 71.6189 41.0171 71.4281 40.6612C71.2373 40.3054 71.4308 39.8302 71.8603 39.5999C72.2897 39.3696 72.7926 39.4714 72.9834 39.8273C73.1742 40.1831 72.9807 40.6583 72.5512 40.8885Z" fill="#C8391A"/>
<path d="M69.5091 42.6534C69.0797 42.8836 68.5768 42.7819 68.386 42.426C68.1952 42.0702 68.3887 41.595 68.8182 41.3647C69.2476 41.1344 69.7505 41.2362 69.9413 41.5921C70.1321 41.9479 69.9386 42.4231 69.5091 42.6534Z" fill="#C8391A"/>
<path d="M67.427 39.6001C66.9976 39.8304 66.4947 39.7286 66.3039 39.3727C66.1131 39.0169 66.3066 38.5417 66.736 38.3114C67.1655 38.0812 67.6683 38.1829 67.8591 38.5388C68.05 38.8946 67.8565 39.3698 67.427 39.6001Z" fill="#C8391A"/>
<path d="M58.7976 52.6204C58.3682 52.8507 57.8653 52.7489 57.6745 52.3931C57.4837 52.0372 57.6772 51.5621 58.1067 51.3318C58.5361 51.1015 59.039 51.2033 59.2298 51.5591C59.4206 51.915 59.2271 52.3901 58.7976 52.6204Z" fill="#C8391A"/>
<path d="M62.1654 43.7838C61.7359 44.0141 61.2331 43.9123 61.0423 43.5565C60.8514 43.2007 61.0449 42.7255 61.4744 42.4952C61.9038 42.2649 62.4067 42.3667 62.5975 42.7226C62.7883 43.0784 62.5948 43.5536 62.1654 43.7838Z" fill="#C8391A"/>
<path fill-rule="evenodd" clip-rule="evenodd" d="M38.6827 44.5755C39.5624 43.9075 40.8171 44.0791 41.4851 44.9588L47.9678 53.4954C48.6358 54.3751 48.4642 55.6297 47.5845 56.2977C46.7049 56.9658 45.4502 56.7942 44.7822 55.9145L38.2995 47.3779C37.6315 46.4982 37.8031 45.2436 38.6827 44.5755Z" fill="#FF876D"/>
<path fill-rule="evenodd" clip-rule="evenodd" d="M15.9265 61.5723C16.8035 60.9008 18.0588 61.0674 18.7303 61.9444L24.6505 69.6766C25.3219 70.5536 25.1553 71.809 24.2783 72.4805C23.4013 73.152 22.146 72.9853 21.4745 72.1083L15.5543 64.3761C14.8828 63.4991 15.0494 62.2438 15.9265 61.5723Z" fill="#FF876D"/>
<path fill-rule="evenodd" clip-rule="evenodd" d="M73.4986 42.047C73.9378 42.3819 74.0224 43.0093 73.6875 43.4485C69.6969 48.6821 65.1238 50.9047 59.3681 51.28C57.8299 51.3804 56.528 51.4177 55.3577 51.4513C52.2296 51.5411 50.0417 51.6039 46.7941 52.7697C44.7311 53.5103 43.1008 55.0411 41.2148 57.1736C40.7698 57.6767 40.3111 58.2128 39.8312 58.7738C38.314 60.5472 36.5846 62.5686 34.4064 64.5777C29.8808 68.7521 25.3646 69.9941 22.1979 70.5757C21.6547 70.6755 21.1335 70.316 21.0337 69.7728C20.934 69.2296 21.2934 68.7084 21.8366 68.6086C24.795 68.0653 28.9038 66.9323 33.0504 63.1076C35.1331 61.1866 36.7554 59.2908 38.2592 57.5334C38.7538 56.9555 39.2355 56.3925 39.7166 55.8486C41.6261 53.6896 43.5422 51.8121 46.1184 50.8873C49.6864 49.6065 52.2633 49.5332 55.5122 49.4407C56.6483 49.4084 57.8665 49.3737 59.2379 49.2843C64.4258 48.9459 68.4627 47.0022 72.0971 42.2358C72.432 41.7967 73.0595 41.7121 73.4986 42.047Z" fill="#FAF1D1"/>
<path fill-rule="evenodd" clip-rule="evenodd" d="M69.9771 37.8299C70.3981 38.1874 70.4495 38.8184 70.092 39.2394C66.0445 44.0052 61.7389 46.0976 55.9768 46.3831C54.4962 46.4565 53.2321 46.4653 52.098 46.4731C48.8647 46.4955 46.689 46.5105 43.5723 47.995C41.0351 49.2035 39.2733 50.6696 37.4374 52.5105C36.7899 53.1597 36.1139 53.8774 35.384 54.6523C34.0845 56.0319 32.614 57.593 30.8294 59.2722C26.2004 63.6276 22.0253 65.19 18.5515 65.0918C17.9994 65.0762 17.5646 64.616 17.5802 64.0639C17.5958 63.5119 18.056 63.077 18.608 63.0926C21.3971 63.1714 25.0842 61.9317 29.4588 57.8156C31.218 56.1605 32.5836 54.7087 33.8438 53.369C34.5866 52.5794 35.2928 51.8287 36.0213 51.0982C37.9505 49.1638 39.8964 47.5306 42.7123 46.1894C46.2604 44.4994 48.9693 44.483 52.3519 44.4626C53.4406 44.456 54.5991 44.449 55.8778 44.3856C61.069 44.1284 64.8651 42.3042 68.5676 37.9447C68.9251 37.5238 69.5562 37.4723 69.9771 37.8299Z" fill="#FAF1D1"/>
</svg>
