<svg width="96" height="96" viewBox="0 0 96 96" fill="none" xmlns="http://www.w3.org/2000/svg">
<path d="M30.5254 31.0335C21.1795 30.2365 12.1493 37.8297 12.7531 47.1901C13.7226 64.3162 28.1019 70.3843 36.5842 70.3843C44.6624 70.3843 58.7997 64.6394 60.4153 47.1901C61.0192 37.8298 51.9889 30.2365 42.6429 31.0335C40.1781 31.2437 37.446 32.7287 36.5842 32.8821C35.7224 32.7287 32.9903 31.2437 30.5254 31.0335Z" fill="#00162B" fill-opacity="0.2"/>
<path fill-rule="evenodd" clip-rule="evenodd" d="M62.0261 47.3167L62.0241 47.3391C60.309 65.8621 45.2285 72 36.5842 72C32.0121 72 25.9459 70.3803 20.869 66.4922C15.7403 62.5646 11.6546 56.3423 11.1404 47.2877C10.467 36.7832 20.5022 28.5572 30.6627 29.4236C32.1292 29.5487 33.6022 30.0412 34.7288 30.4684C35.1118 30.6137 35.4879 30.7647 35.8091 30.8937C35.9572 30.9531 36.0936 31.0079 36.2136 31.0552C36.3572 31.1119 36.4797 31.159 36.5842 31.1972C36.6886 31.159 36.8111 31.1119 36.9548 31.0552C37.0748 31.0079 37.2112 30.9531 37.3592 30.8937C37.6804 30.7647 38.0565 30.6137 38.4395 30.4684C39.5661 30.0412 41.0392 29.5487 42.5057 29.4236C52.6682 28.557 62.7056 36.7865 62.0276 47.2942L62.0261 47.3167ZM36.5842 32.8821C36.298 32.8312 35.8055 32.6334 35.1851 32.3842C33.9373 31.883 32.1717 31.1739 30.5254 31.0335C21.1795 30.2365 12.1493 37.8297 12.7531 47.1901C13.7226 64.3162 28.1019 70.3843 36.5842 70.3843C44.6624 70.3843 58.7997 64.6394 60.4153 47.1901C61.0192 37.8298 51.9889 30.2365 42.6429 31.0335C40.9966 31.1739 39.2311 31.883 37.9833 32.3842C37.3628 32.6334 36.8704 32.8312 36.5842 32.8821Z" fill="#00162B" fill-opacity="0.2"/>
<path d="M35.5873 28.0633C34.5646 20.5315 28.5058 21.7432 24.8706 17.704C25.8943 20.199 32.1815 27.0624 35.5873 28.0633Z" fill="#73B40D"/>
<path fill-rule="evenodd" clip-rule="evenodd" d="M36.6736 29.3273C37.1021 28.959 37.3148 28.3988 37.2388 27.839C36.9514 25.7225 36.2909 24.1016 35.3182 22.825C34.3528 21.5582 33.1633 20.7415 32.0065 20.1107C31.433 19.798 30.8464 19.5201 30.2979 19.2624C30.256 19.2427 30.2144 19.2232 30.1729 19.2037C29.6587 18.9623 29.178 18.7366 28.7065 18.4903C27.6995 17.9643 26.8321 17.3921 26.1094 16.5891C25.5672 15.9866 24.67 15.8616 23.9837 16.2929C23.2974 16.7242 23.021 17.5868 23.3286 18.3367C23.6756 19.1823 24.3805 20.2281 25.1831 21.2586C26.0137 22.3252 27.0459 23.497 28.1496 24.6149C29.2517 25.7312 30.4487 26.8175 31.6122 27.7008C32.7426 28.5589 33.9694 29.325 35.1174 29.6624C35.6594 29.8216 36.2452 29.6955 36.6736 29.3273ZM35.1375 26.054C35.3327 26.6458 35.4851 27.3109 35.5873 28.0633C35.0299 27.8995 34.3953 27.5787 33.7193 27.1457C31.7902 25.9101 29.5233 23.761 27.7483 21.7406C26.3447 20.1428 25.2486 18.6255 24.8706 17.7041C26.0123 18.9727 27.3932 19.7234 28.782 20.3896C29.0078 20.4979 29.2337 20.604 29.4589 20.7097C31.8184 21.8173 34.0919 22.8845 35.1375 26.054Z" fill="#436C02"/>
<path d="M36.1823 30.4868C37.205 22.955 43.4507 19.3197 47.4898 20.1276C41.4311 20.9354 43.0468 28.6098 36.1823 30.4868Z" fill="#73B40D"/>
<path fill-rule="evenodd" clip-rule="evenodd" d="M35.084 31.7405C34.6633 31.3719 34.4555 30.8168 34.5307 30.2626C35.6588 21.9556 42.6679 17.4635 47.8167 18.4934C48.6157 18.6532 49.182 19.3673 49.1556 20.1817C49.1292 20.9961 48.5178 21.672 47.7101 21.7797C45.6246 22.0577 44.8664 23.3505 43.6063 25.6953L43.5911 25.7235C42.3802 27.9767 40.778 30.958 36.6218 32.0945C36.0823 32.242 35.5047 32.1091 35.084 31.7405ZM36.5649 28.6026C36.4008 29.2007 36.2716 29.8289 36.1822 30.4868C36.8658 30.2999 37.4652 30.0556 37.9965 29.7662C40.16 28.5879 41.1938 26.6639 42.1748 24.8382C42.6655 23.9249 43.143 23.0362 43.7421 22.2779C44.6049 21.1856 45.7199 20.3636 47.4898 20.1276C46.0628 19.8422 44.3605 20.1114 42.7103 20.911C40.0976 22.177 37.6157 24.7727 36.5649 28.6026Z" fill="#436C02"/>
<path fill-rule="evenodd" clip-rule="evenodd" d="M36.1802 16.8452C37.1007 16.8452 37.8469 17.5914 37.8469 18.5119V30.6294C37.8469 31.5499 37.1007 32.2961 36.1802 32.2961C35.2597 32.2961 34.5135 31.5499 34.5135 30.6294V18.5119C34.5135 17.5914 35.2597 16.8452 36.1802 16.8452Z" fill="#457003"/>
<path d="M28.9097 29.4179C19.5637 28.6209 10.5335 36.2142 11.1373 45.5746C12.1068 62.7007 26.4861 68.7688 34.9684 68.7688C43.0467 68.7688 57.1839 63.0238 58.7995 45.5746C59.4035 36.2142 50.3731 28.6209 41.0272 29.4179C38.5623 29.6281 35.8302 31.1132 34.9684 31.2666C34.1066 31.1132 31.3745 29.6281 28.9097 29.4179Z" fill="#FF3A1A"/>
<path fill-rule="evenodd" clip-rule="evenodd" d="M60.4613 45.7051L60.4591 45.7282C58.7409 64.2851 43.6307 70.4354 34.9685 70.4354C30.386 70.4354 24.3087 68.8124 19.2222 64.9172C14.0824 60.981 9.98894 54.7453 9.47373 45.6752C8.7982 35.1345 18.8651 26.8886 29.0513 27.7572C30.5252 27.8829 32.0037 28.3776 33.1312 28.8051C33.5146 28.9506 33.8917 29.102 34.2131 29.231C34.361 29.2904 34.4971 29.345 34.6165 29.3922C34.7521 29.4457 34.8685 29.4905 34.9684 29.5273C35.0684 29.4905 35.1848 29.4457 35.3204 29.3922C35.4399 29.345 35.5759 29.2904 35.7238 29.231C36.0452 29.102 36.4223 28.9506 36.8057 28.8051C37.9332 28.3776 39.4117 27.8829 40.8856 27.7572C51.0739 26.8884 61.1431 35.138 60.4627 45.6819L60.4613 45.7051ZM34.9685 31.2665C34.6823 31.2156 34.1898 31.0178 33.5694 30.7686C32.3215 30.2674 30.556 29.5583 28.9097 29.4179C19.5638 28.6209 10.5335 36.2142 11.1374 45.5746C12.1068 62.7006 26.4861 68.7687 34.9685 68.7687C43.0467 68.7687 57.1839 63.0238 58.7995 45.5746C59.4035 36.2142 50.3731 28.6209 41.0272 29.4179C39.3809 29.5583 37.6154 30.2674 36.3675 30.7686C35.7471 31.0178 35.2547 31.2156 34.9685 31.2665Z" fill="#A20505"/>
<path fill-rule="evenodd" clip-rule="evenodd" d="M14.963 35.005C18.3594 31.2347 23.5833 28.9637 28.9098 29.4179C30.5561 29.5583 32.3216 30.2674 33.5694 30.7686C34.1899 31.0178 34.6823 31.2156 34.9685 31.2666C35.2547 31.2156 35.7472 31.0178 36.3676 30.7686C37.6155 30.2674 39.381 29.5583 41.0273 29.4179C46.664 28.9372 52.1859 31.5085 55.5486 35.6788C51.1647 33.4332 45.8908 32.2345 41.0273 32.6492C39.381 32.7896 37.6155 33.4987 36.3676 33.9999C35.7472 34.2491 35.2548 34.4469 34.9686 34.4979C34.6824 34.4469 34.1899 34.2491 33.5695 33.9999C32.3216 33.4987 30.5561 32.7896 28.9098 32.6492C23.8821 32.2205 19.0074 33.1536 14.963 35.005Z" fill="#E83214"/>
<path fill-rule="evenodd" clip-rule="evenodd" d="M18.8722 62.4666C23.2142 65.1904 28.0368 66.3452 31.7371 66.3452C39.8154 66.3452 53.9526 60.6003 55.5682 43.151C55.8562 38.6882 53.954 34.627 50.8718 31.6854C55.7702 34.5326 59.1782 39.7063 58.7995 45.5745C57.1839 63.0238 43.0467 68.7687 34.9684 68.7687C30.3152 68.7687 23.8873 66.9426 18.8722 62.4666Z" fill="#E83214"/>
<path d="M36.1801 27.5955C41.8349 22.5511 43.4506 28.206 48.7015 29.0138C46.0486 29.4986 38.8609 29.9226 36.1801 27.5955Z" fill="#8ED918"/>
<path fill-rule="evenodd" clip-rule="evenodd" d="M34.5135 27.6068C34.5102 27.1278 34.7132 26.6706 35.0706 26.3518C36.6132 24.9757 38.0576 24.1666 39.5173 23.9302C41.0156 23.6875 42.2771 24.0887 43.338 24.6195C43.8567 24.879 44.3532 25.1828 44.8078 25.4674C44.9049 25.5283 45 25.5881 45.0936 25.6471C45.4558 25.8751 45.7968 26.0898 46.1585 26.2987C47.0462 26.8113 47.9277 27.2084 48.9549 27.3665C49.7592 27.4902 50.3566 28.1767 50.368 28.9903C50.3794 29.804 49.8016 30.507 49.0011 30.6533C47.5492 30.9186 44.9604 31.1544 42.3673 31.0236C41.0662 30.958 39.7153 30.7979 38.4807 30.4815C37.2676 30.1706 36.0343 29.6759 35.0876 28.8541C34.7259 28.5402 34.5167 28.0857 34.5135 27.6068ZM37.5348 26.5345C37.1091 26.8177 36.6591 27.1682 36.1801 27.5955C36.5925 27.9535 37.1115 28.2463 37.7043 28.4839C39.6708 29.272 42.4488 29.4514 44.8367 29.3797C46.4081 29.3325 47.8106 29.1766 48.7015 29.0138C47.3537 28.8064 46.2454 28.2797 45.2468 27.6966C44.8831 27.4842 44.5339 27.2643 44.193 27.0496C42.1326 25.752 40.3749 24.6451 37.5348 26.5345Z" fill="#436C02"/>
<path d="M34.9683 28.206C31.7371 24.1668 28.1017 26.5902 21.2351 26.9942C24.0625 28.6098 31.821 29.848 34.9683 28.206Z" fill="#8ED918"/>
<path fill-rule="evenodd" clip-rule="evenodd" d="M36.5992 28.5495C36.7019 28.0619 36.581 27.554 36.2698 27.1649C35.3067 25.961 34.2369 25.1499 33.0042 24.693C31.7937 24.2444 30.558 24.1869 29.349 24.2713C28.3315 24.3423 27.226 24.5247 26.105 24.7098C25.9222 24.74 25.7389 24.7702 25.5556 24.8001C24.213 25.0186 22.7663 25.2345 21.1373 25.3304C20.401 25.3737 19.7807 25.8958 19.6124 26.6139C19.4441 27.332 19.7678 28.0753 20.4082 28.4412C22.1079 29.4125 25.0142 30.1609 27.793 30.4776C29.2122 30.6394 30.6728 30.6977 32.015 30.5987C33.3294 30.5017 34.6631 30.245 35.7392 29.6836C36.181 29.4531 36.4965 29.0371 36.5992 28.5495ZM33.6813 26.9396C34.1213 27.2649 34.5482 27.6808 34.9683 28.206C34.4887 28.4562 33.9021 28.6395 33.2422 28.7648C30.8739 29.2145 27.5614 28.917 24.8652 28.2815C23.3822 27.932 22.0856 27.4801 21.2351 26.9942C22.5888 26.9145 23.817 26.7564 24.9412 26.5848C25.4434 26.5081 25.9249 26.4288 26.3876 26.3525C29.4596 25.8461 31.7024 25.4764 33.6813 26.9396Z" fill="#436C02"/>
<path d="M29.2775 34.3775C30.9377 36.8479 29.2796 40.8695 25.5738 43.3599C21.8681 45.8503 17.5181 45.8664 15.8578 43.3959C14.1976 40.9255 15.8558 36.9039 19.5615 34.4135C23.2672 31.9231 27.6172 31.907 29.2775 34.3775Z" fill="#FE7B7B"/>
<path fill-rule="evenodd" clip-rule="evenodd" d="M22.3963 36.3393C22.9367 37.0845 22.7706 38.1266 22.0254 38.667C21.4799 39.0625 21.0696 39.5244 20.7716 40.056C20.3214 40.8589 19.3056 41.1448 18.5027 40.6947C17.6998 40.2445 17.4139 39.2287 17.8641 38.4258C18.4093 37.4535 19.1518 36.6333 20.0687 35.9684C20.8139 35.4281 21.856 35.5941 22.3963 36.3393Z" fill="white"/>
<path d="M49.6025 52.2453C49.0691 52.9692 48.0498 53.1237 47.3259 52.5904C46.6019 52.057 46.4474 51.0377 46.9808 50.3138C47.5141 49.5898 48.5334 49.4353 49.2574 49.9687C49.9813 50.5021 50.1358 51.5213 49.6025 52.2453Z" fill="#C5270E"/>
<path d="M52.1867 57.6146C51.6533 58.3385 50.634 58.493 49.9101 57.9596C49.1861 57.4263 49.0316 56.407 49.565 55.683C50.0984 54.9591 51.1176 54.8046 51.8416 55.338C52.5656 55.8713 52.7201 56.8906 52.1867 57.6146Z" fill="#C5270E"/>
<path d="M54.1266 52.1069C53.7266 52.6498 52.9621 52.7657 52.4191 52.3657C51.8762 51.9657 51.7603 51.2012 52.1603 50.6582C52.5604 50.1153 53.3248 49.9994 53.8678 50.3994C54.4107 50.7995 54.5266 51.5639 54.1266 52.1069Z" fill="#C5270E"/>
<path d="M48.08 61.8337C47.5466 62.5576 46.5274 62.7121 45.8034 62.1788C45.0794 61.6454 44.9249 60.6261 45.4583 59.9022C45.9917 59.1782 47.011 59.0237 47.7349 59.5571C48.4589 60.0904 48.6134 61.1097 48.08 61.8337Z" fill="#C5270E"/>
<path d="M46.5164 56.544C45.983 57.268 44.9638 57.4225 44.2398 56.8891C43.5158 56.3557 43.3613 55.3364 43.8947 54.6125C44.4281 53.8885 45.4474 53.734 46.1713 54.2674C46.8953 54.8008 47.0498 55.82 46.5164 56.544Z" fill="#C5270E"/>
<path d="M42.0114 64.2577C41.478 64.9816 40.4588 65.1361 39.7348 64.6028C39.0108 64.0694 38.8563 63.0501 39.3897 62.3262C39.9231 61.6022 40.9424 61.4477 41.6663 61.9811C42.3903 62.5145 42.5448 63.5337 42.0114 64.2577Z" fill="#C5270E"/>
<path d="M41.3768 59.1296C40.8434 59.8536 39.8241 60.0081 39.1002 59.4747C38.3762 58.9413 38.2217 57.9221 38.7551 57.1981C39.2884 56.4742 40.3077 56.3197 41.0317 56.853C41.7556 57.3864 41.9101 58.4057 41.3768 59.1296Z" fill="#C5270E"/>
<path d="M35.6497 65.1268C35.2496 65.6698 34.4852 65.7857 33.9422 65.3856C33.3992 64.9856 33.2834 64.2212 33.6834 63.6782C34.0834 63.1352 34.8479 63.0194 35.3908 63.4194C35.9338 63.8194 36.0497 64.5839 35.6497 65.1268Z" fill="#C5270E"/>
<path d="M63.2441 56.8105C53.3656 67.4466 43.9347 86.2525 34.1447 76.9447C24.3548 67.6368 42.6926 57.2992 52.5711 46.6631C62.4497 36.027 70.2011 32.5629 73.1484 35.3651C76.0957 38.1672 73.1226 46.1744 63.2441 56.8105Z" fill="#00162B" fill-opacity="0.2"/>
<path fill-rule="evenodd" clip-rule="evenodd" d="M41.8682 80.9578C38.793 81.7476 35.7617 80.9406 32.9321 78.2503C30.1016 75.5593 29.1323 72.5588 29.77 69.4212C30.3671 66.4835 32.3273 63.6872 34.6763 61.092C37.0535 58.4655 40.0456 55.8177 42.9832 53.2231L43.0878 53.1307C46.0249 50.5367 48.911 47.9876 51.2807 45.4362C56.2926 40.0399 60.8589 36.3565 64.6482 34.3819C66.5393 33.3964 68.3313 32.7867 69.9484 32.6657C71.5902 32.5429 73.1671 32.9242 74.3611 34.0594C75.556 35.1955 76.0277 36.7638 76.004 38.4281C75.9808 40.0662 75.4847 41.9093 74.6254 43.8749C72.9034 47.8133 69.5448 52.6429 64.5346 58.0374C62.2749 60.4704 60.0302 63.3526 57.74 66.2932C57.5926 66.4826 57.4449 66.6721 57.2971 66.8618C54.8814 69.9616 52.4072 73.1031 49.9127 75.6242C47.4462 78.1169 44.7603 80.215 41.8682 80.9578ZM56.3633 65.1661C58.6392 62.2436 60.9294 59.3027 63.2441 56.8105C73.1226 46.1744 76.0957 38.1672 73.1484 35.3651C70.2011 32.5629 62.4497 36.027 52.5711 46.6631C50.1409 49.2798 47.1986 51.8783 44.2891 54.448C35.3722 62.3233 26.7632 69.9267 34.1447 76.9447C41.6407 84.0715 48.9262 74.7162 56.3633 65.1661Z" fill="#00162B" fill-opacity="0.2"/>
<path d="M74.5787 67.1269C63.0934 75.9579 52.6139 93.4054 42.7857 80.3207C32.9576 67.2359 52.3788 61.693 63.8641 52.862C75.3495 44.031 81.4192 44.4017 84.3779 48.3408C87.3366 52.28 86.0641 58.296 74.5787 67.1269Z" fill="#00162B" fill-opacity="0.2"/>
<path fill-rule="evenodd" clip-rule="evenodd" d="M50.2389 86.8122C46.9953 86.7276 44.0451 84.9585 41.3758 81.4047C38.7066 77.851 37.812 74.5013 38.6001 71.3168C39.3597 68.2472 41.5925 65.7432 44.2216 63.6008C46.8703 61.4425 50.1835 59.4474 53.4411 57.4962C53.5203 57.4488 53.5995 57.4013 53.6787 57.3539C56.9045 55.4221 60.0856 53.517 62.7927 51.4355C68.6199 46.955 73.2921 44.6284 77.0484 44.0419C78.9548 43.7443 80.669 43.8884 82.1722 44.4702C83.6814 45.0542 84.8733 46.0392 85.7878 47.2568C86.7023 48.4743 87.3211 49.8999 87.4731 51.5275C87.6245 53.1487 87.3027 54.8582 86.5087 56.6369C84.9442 60.1415 81.4774 64.0729 75.6502 68.5534C72.9431 70.6349 70.277 73.2257 67.5735 75.8528L67.3743 76.0464C64.6439 78.6993 61.8567 81.3947 59.0921 83.3987C56.3478 85.3878 53.3654 86.8938 50.2389 86.8122ZM66.3814 74.5271C69.0579 71.926 71.7886 69.2722 74.5787 67.1269C86.0641 58.296 87.3366 52.28 84.3779 48.3408C81.4192 44.4017 75.3495 44.031 63.8641 52.862C61.074 55.0073 57.8156 56.9586 54.6219 58.871C44.669 64.8312 35.3451 70.4146 42.7857 80.3207C50.2263 90.2268 58.0403 82.6331 66.3814 74.5271Z" fill="#00162B" fill-opacity="0.2"/>
<path d="M61.4734 55.0189C51.5949 65.655 42.164 84.4609 32.374 75.1531C22.5841 65.8452 40.9219 55.5076 50.8004 44.8715C60.679 34.2354 68.4304 30.7713 71.3777 33.5734C74.325 36.3756 71.3519 44.3828 61.4734 55.0189Z" fill="#4CAA1F"/>
<path fill-rule="evenodd" clip-rule="evenodd" d="M40.0975 79.1661C37.0223 79.9559 33.9911 79.149 31.1614 76.4587C28.331 73.7676 27.3616 70.7671 27.9994 67.6296C28.5965 64.6918 30.5567 61.8956 32.9056 59.3003C35.2828 56.6738 38.2749 54.026 41.2126 51.4314L41.3172 51.339C44.2542 48.745 47.1403 46.196 49.51 43.6445C54.5219 38.2483 59.0883 34.5649 62.8775 32.5903C64.7687 31.6048 66.5607 30.995 68.1778 30.8741C69.8195 30.7513 71.3964 31.1326 72.5904 32.2678C73.7854 33.4039 74.257 34.9721 74.2334 36.6364C74.2101 38.2745 73.7141 40.1177 72.8547 42.0832C71.1328 46.0216 67.7742 50.8513 62.7639 56.2458C60.5043 58.6787 58.2595 61.561 55.9694 64.5016C55.8219 64.6909 55.6743 64.8805 55.5264 65.0702C53.1107 68.1699 50.6366 71.3114 48.142 73.8325C45.6756 76.3252 42.9896 78.4233 40.0975 79.1661ZM54.5926 63.3745C56.8686 60.4519 59.1587 57.5111 61.4734 55.0189C71.352 44.3827 74.325 36.3755 71.3777 33.5734C68.4305 30.7713 60.679 34.2354 50.8005 44.8715C48.3702 47.4881 45.4279 50.0867 42.5185 52.6563C33.6016 60.5317 24.9926 68.135 32.3741 75.153C39.8701 82.2799 47.1555 72.9245 54.5926 63.3745Z" fill="#2B710A"/>
<path fill-rule="evenodd" clip-rule="evenodd" d="M53.1148 56.0074C55.1623 53.3308 57.2225 50.6375 59.3264 48.3722C65.3351 41.9028 68.4363 36.4115 68.9473 32.6466C69.9482 32.6805 70.7664 32.9921 71.3778 33.5734C74.325 36.3755 71.352 44.3827 61.4735 55.0189C59.1587 57.5111 56.8686 60.4519 54.5926 63.3745C47.1556 72.9245 39.8701 82.2799 32.3741 75.153C28.8444 71.7971 28.9711 68.3074 31.0394 64.718C31.4123 65.2095 31.8555 65.7017 32.3741 66.1947C39.8701 73.3216 46.4242 64.7536 53.1148 56.0074Z" fill="#419C15"/>
<path d="M61.0992 37.7395C62.3439 39.7903 55.0751 49.3854 47.3751 55.6562C42.6198 59.5288 34.0938 66.4062 33.7746 63.4513C32.7744 62.2777 42.6499 53.6941 46.9324 50.2813C56.2293 42.8726 59.2449 36.2069 61.0992 37.7395Z" fill="#5FCF2A"/>
<path fill-rule="evenodd" clip-rule="evenodd" d="M43.1313 55.9185C43.4771 56.2684 43.4771 56.8356 43.1313 57.1854C41.7927 58.5398 40.6773 59.4155 39.3182 60.4825C38.8323 60.8639 38.3154 61.2698 37.7459 61.7307C37.3641 62.0398 36.8069 61.9771 36.5014 61.5908C36.1959 61.2045 36.2578 60.6407 36.6397 60.3316C37.2571 59.8319 37.7991 59.4064 38.2958 59.0163C39.6212 57.9756 40.6247 57.1877 41.8791 55.9185C42.2249 55.5687 42.7855 55.5687 43.1313 55.9185Z" fill="#A0EA29"/>
<path d="M73.1442 65.4569C61.6588 74.2879 51.1793 91.7354 41.3512 78.6506C31.523 65.5659 50.9442 60.023 62.4296 51.192C73.9149 42.361 79.9846 42.7316 82.9433 46.6708C85.9021 50.6099 84.6295 56.6259 73.1442 65.4569Z" fill="#58C923"/>
<path fill-rule="evenodd" clip-rule="evenodd" d="M48.8043 85.1422C45.5607 85.0576 42.6105 83.2885 39.9413 79.7347C37.272 76.181 36.3774 72.8313 37.1655 69.6468C37.9251 66.5772 40.1579 64.0732 42.7871 61.9308C45.4358 59.7725 48.7489 57.7773 52.0065 55.8262C52.0857 55.7787 52.1649 55.7313 52.2441 55.6839C55.4699 53.7521 58.651 51.847 61.3581 49.7655C67.1854 45.285 71.8576 42.9584 75.6139 42.3719C77.5203 42.0742 79.2344 42.2184 80.7376 42.8001C82.2468 43.3842 83.4388 44.3692 84.3532 45.5867C85.2677 46.8042 85.8865 48.2299 86.0385 49.8575C86.19 51.4787 85.8682 53.1882 85.0742 54.9669C83.5097 58.4715 80.0428 62.4029 74.2156 66.8834C71.5085 68.9649 68.8425 71.5556 66.139 74.1828L65.9398 74.3763C63.2094 77.0293 60.4222 79.7247 57.6575 81.7287C54.9133 83.7178 51.9308 85.2237 48.8043 85.1422ZM64.9468 72.857C67.6233 70.256 70.354 67.6022 73.1442 65.4569C84.6295 56.6259 85.9021 50.6099 82.9433 46.6708C79.9846 42.7316 73.9149 42.361 62.4296 51.192C59.6395 53.3373 56.381 55.2886 53.1874 57.201C43.2345 63.1611 33.9106 68.7446 41.3512 78.6507C48.7918 88.5567 56.6057 80.963 64.9468 72.857Z" fill="#2B710A"/>
<path fill-rule="evenodd" clip-rule="evenodd" d="M63.176 69.2738C65.8525 66.6727 68.5832 64.0189 71.3734 61.8736C80.2571 55.043 83.0307 49.8966 82.4623 46.0927C82.6311 46.2755 82.7913 46.4684 82.9434 46.6709C85.9021 50.61 84.6296 56.626 73.1442 65.457C70.3541 67.6023 67.6233 70.2561 64.9469 72.8571C56.6058 80.9631 48.7918 88.5568 41.3512 78.6507C40.1843 77.0972 39.4298 75.65 39.0253 74.2909C39.1988 74.5468 39.3837 74.8056 39.5804 75.0674C47.021 84.9735 54.8349 77.3798 63.176 69.2738Z" fill="#4CAA1F"/>
<path d="M70.4795 51.8139C71.7241 53.8646 55.3439 65.5104 55.3439 65.5104C55.3439 65.5104 41.8581 73.5832 40.858 72.4097C39.8578 71.2361 46.0094 65.0187 50.9168 62.617C63.8388 56.293 68.6252 50.2813 70.4795 51.8139Z" fill="#79E645"/>
<path fill-rule="evenodd" clip-rule="evenodd" d="M56.5482 61.4794C56.8401 61.8764 56.7587 62.4376 56.3663 62.7329C55.2627 63.5635 53.3012 64.698 51.3922 65.8021C51.2478 65.8856 51.1037 65.9689 50.9603 66.0519C48.8551 67.2707 46.9216 68.4092 46.0518 69.1481C45.6773 69.4662 45.1188 69.417 44.8044 69.0381C44.4899 68.6591 44.5386 68.0941 44.9131 67.7759C45.936 66.907 48.0478 65.6738 50.0809 64.4968C50.2069 64.4239 50.3327 64.3511 50.4582 64.2785C52.4227 63.1418 54.2963 62.0578 55.3094 61.2953C55.7017 61 56.2564 61.0824 56.5482 61.4794Z" fill="white"/>
<path d="M56.0324 57.8585C56.0324 58.4976 55.5204 59.0157 54.8888 59.0157C54.2572 59.0157 53.7451 58.4976 53.7451 57.8585C53.7451 57.2195 54.2572 56.7014 54.8888 56.7014C55.5204 56.7014 56.0324 57.2195 56.0324 57.8585Z" fill="#47A21D"/>
<path d="M63.6568 54.7728C63.6568 55.4119 63.1448 55.93 62.5132 55.93C61.8815 55.93 61.3695 55.4119 61.3695 54.7728C61.3695 54.1338 61.8815 53.6157 62.5132 53.6157C63.1448 53.6157 63.6568 54.1338 63.6568 54.7728Z" fill="#47A21D"/>
<path d="M68.2315 50.1444C68.2315 50.7835 67.7195 51.3015 67.0879 51.3015C66.4562 51.3015 65.9442 50.7835 65.9442 50.1444C65.9442 49.5054 66.4562 48.9873 67.0879 48.9873C67.7195 48.9873 68.2315 49.5054 68.2315 50.1444Z" fill="#47A21D"/>
<path d="M49.1705 64.0298C49.1705 64.6689 48.6585 65.1869 48.0268 65.1869C47.3952 65.1869 46.8832 64.6689 46.8832 64.0298C46.8832 63.3907 47.3952 62.8727 48.0268 62.8727C48.6585 62.8727 49.1705 63.3907 49.1705 64.0298Z" fill="#47A21D"/>
<path d="M59.8447 55.1586C59.8447 55.5846 59.5034 55.93 59.0823 55.93C58.6612 55.93 58.3198 55.5846 58.3198 55.1586C58.3198 54.7325 58.6612 54.3871 59.0823 54.3871C59.5034 54.3871 59.8447 54.7325 59.8447 55.1586Z" fill="#47A21D"/>
<path d="M58.3198 59.0157C58.3198 59.4417 57.9784 59.7871 57.5574 59.7871C57.1363 59.7871 56.7949 59.4417 56.7949 59.0157C56.7949 58.5896 57.1363 58.2443 57.5574 58.2443C57.9784 58.2443 58.3198 58.5896 58.3198 59.0157Z" fill="#47A21D"/>
<path d="M65.1817 51.3015C65.1817 51.7275 64.8404 52.0729 64.4193 52.0729C63.9982 52.0729 63.6569 51.7275 63.6569 51.3015C63.6569 50.8755 63.9982 50.5301 64.4193 50.5301C64.8404 50.5301 65.1817 50.8755 65.1817 51.3015Z" fill="#47A21D"/>
<path d="M71.2812 48.2159C71.2812 48.6419 70.9399 48.9873 70.5188 48.9873C70.0977 48.9873 69.7563 48.6419 69.7563 48.2159C69.7563 47.7898 70.0977 47.4445 70.5188 47.4445C70.9399 47.4445 71.2812 47.7898 71.2812 48.2159Z" fill="#47A21D"/>
<path d="M45.3583 65.1869C45.3583 65.613 45.0169 65.9584 44.5958 65.9584C44.1747 65.9584 43.8334 65.613 43.8334 65.1869C43.8334 64.7609 44.1747 64.4155 44.5958 64.4155C45.0169 64.4155 45.3583 64.7609 45.3583 65.1869Z" fill="#47A21D"/>
<path d="M50.6953 61.3299C50.6953 61.7559 50.3539 62.1013 49.9329 62.1013C49.5118 62.1013 49.1704 61.7559 49.1704 61.3299C49.1704 60.9038 49.5118 60.5585 49.9329 60.5585C50.3539 60.5585 50.6953 60.9038 50.6953 61.3299Z" fill="#47A21D"/>
<path d="M54.5075 60.5584C54.5075 61.4105 53.8248 62.1013 52.9826 62.1013C52.1405 62.1013 51.4578 61.4105 51.4578 60.5584C51.4578 59.7064 52.1405 59.0156 52.9826 59.0156C53.8248 59.0156 54.5075 59.7064 54.5075 60.5584Z" fill="#47A21D"/>
<path d="M60.6564 70.8854C60.6564 71.6276 60.0618 72.2292 59.3282 72.2292C58.5947 72.2292 58.0001 71.6276 58.0001 70.8854C58.0001 70.1433 58.5947 69.5417 59.3282 69.5417C60.0618 69.5417 60.6564 70.1433 60.6564 70.8854Z" fill="#79E745"/>
<path d="M55.3439 79.8438C55.3439 80.5859 54.7493 81.1875 54.0157 81.1875C53.2822 81.1875 52.6876 80.5859 52.6876 79.8438C52.6876 79.1016 53.2822 78.5 54.0157 78.5C54.7493 78.5 55.3439 79.1016 55.3439 79.8438Z" fill="#79E745"/>
<path d="M69.5105 66.4062C69.5105 67.1484 68.9159 67.75 68.1824 67.75C67.4489 67.75 66.8542 67.1484 66.8542 66.4062C66.8542 65.6641 67.4489 65.0625 68.1824 65.0625C68.9159 65.0625 69.5105 65.6641 69.5105 66.4062Z" fill="#79E745"/>
<path d="M79.2501 58.3438C79.2501 59.0859 78.6555 59.6875 77.922 59.6875C77.1885 59.6875 76.5939 59.0859 76.5939 58.3438C76.5939 57.6016 77.1885 57 77.922 57C78.6555 57 79.2501 57.6016 79.2501 58.3438Z" fill="#79E745"/>
<path d="M63.3126 72.2291C63.3126 72.7239 62.9162 73.125 62.4272 73.125C61.9382 73.125 61.5417 72.7239 61.5417 72.2291C61.5417 71.7344 61.9382 71.3333 62.4272 71.3333C62.9162 71.3333 63.3126 71.7344 63.3126 72.2291Z" fill="#79E745"/>
<path d="M72.1668 64.1666C72.1668 64.6614 71.7704 65.0625 71.2814 65.0625C70.7924 65.0625 70.396 64.6614 70.396 64.1666C70.396 63.6719 70.7924 63.2708 71.2814 63.2708C71.7704 63.2708 72.1668 63.6719 72.1668 64.1666Z" fill="#79E745"/>
<path d="M66.8543 68.6459C66.8543 69.6354 66.0615 70.4375 65.0835 70.4375C64.1055 70.4375 63.3126 69.6354 63.3126 68.6459C63.3126 67.6563 64.1055 66.8542 65.0835 66.8542C66.0615 66.8542 66.8543 67.6563 66.8543 68.6459Z" fill="#79E745"/>
<path d="M74.823 61.4792C74.823 62.4687 74.0302 63.2708 73.0522 63.2708C72.0742 63.2708 71.2814 62.4687 71.2814 61.4792C71.2814 60.4897 72.0742 59.6875 73.0522 59.6875C74.0302 59.6875 74.823 60.4897 74.823 61.4792Z" fill="#79E745"/>
<path d="M58.8855 75.8125C58.8855 76.802 58.0927 77.6041 57.1147 77.6041C56.1367 77.6041 55.3439 76.802 55.3439 75.8125C55.3439 74.823 56.1367 74.0208 57.1147 74.0208C58.0927 74.0208 58.8855 74.823 58.8855 75.8125Z" fill="#79E745"/>
</svg>
